<?xml version="1.0" encoding="UTF-8" standalone="no"?>
<!DOCTYPE svg PUBLIC "-//W3C//DTD SVG 1.1//EN" "http://www.w3.org/Graphics/SVG/1.1/DTD/svg11.dtd">
<svg version="1.1" xmlns="http://www.w3.org/2000/svg" xmlns:xlink="http://www.w3.org/1999/xlink" preserveAspectRatio="xMidYMid meet" viewBox="0 0 288 168" width="288" height="168"><defs><path d="M268.93 4.04C267.04 2.14 264.86 1.19 262.39 1.19C259.92 1.19 257.74 2.14 255.84 4.04C248.39 11.49 211.11 48.77 144 115.87C76.9 48.77 39.62 11.49 32.16 4.04C30.27 2.14 28.08 1.19 25.62 1.19C23.15 1.19 20.97 2.14 19.07 4.04C17.65 5.46 6.27 16.84 4.85 18.27C2.95 20.16 2 22.34 2 24.81C2 27.28 2.95 29.46 4.85 31.35C18.11 44.62 124.19 150.71 137.46 163.97C139.35 165.86 141.54 166.81 144 166.81C146.47 166.81 148.65 165.86 150.54 163.97C163.8 150.71 269.9 44.62 283.16 31.35C285.06 29.46 286 27.28 286 24.81C286 22.34 285.06 20.16 283.16 18.26C280.32 15.42 270.36 5.46 268.93 4.04Z" id="d1EUU2NcUC"></path></defs><g><g><g><use xlink:href="#d1EUU2NcUC" opacity="1" fill="#00c6b3" fill-opacity="1"></use><g><use xlink:href="#d1EUU2NcUC" opacity="1" fill-opacity="0" stroke="#000000" stroke-width="1" stroke-opacity="0"></use></g></g></g></g></svg>