<?xml version="1.0" encoding="UTF-8" standalone="no"?>
<!DOCTYPE svg PUBLIC "-//W3C//DTD SVG 1.1//EN" "http://www.w3.org/Graphics/SVG/1.1/DTD/svg11.dtd">
<svg version="1.1" xmlns="http://www.w3.org/2000/svg" xmlns:xlink="http://www.w3.org/1999/xlink" preserveAspectRatio="xMidYMid meet" viewBox="0 0 817 523" width="817" height="523"><defs><path d="M266.93 62.04C265.04 60.14 262.86 59.19 260.39 59.19C257.92 59.19 255.74 60.14 253.84 62.04C246.39 69.49 209.11 106.77 142 173.87C74.9 106.77 37.62 69.49 30.16 62.04C28.27 60.14 26.08 59.19 23.62 59.19C21.15 59.19 18.97 60.14 17.07 62.04C15.65 63.46 4.27 74.84 2.85 76.27C0.95 78.16 0 80.34 0 82.81C0 85.28 0.95 87.46 2.85 89.35C16.11 102.62 122.19 208.71 135.46 221.97C137.35 223.86 139.54 224.81 142 224.81C144.47 224.81 146.65 223.86 148.54 221.97C161.8 208.71 267.9 102.62 281.16 89.35C283.06 87.46 284 85.28 284 82.81C284 80.34 283.06 78.16 281.16 76.26C278.32 73.42 268.36 63.46 266.93 62.04Z" id="b2g793sGfq"></path><path d="M816.62 0.46C816.62 0.46 816.62 0.46 816.62 0.46C816.62 313.99 816.62 488.16 816.62 523C816.62 523 816.62 523 816.62 523C327.08 523 55.12 523 0.73 523C0.73 523 0.73 523 0.73 523C0.73 209.48 0.73 35.3 0.73 0.46C0.73 0.46 0.73 0.46 0.73 0.46C490.26 0.46 762.23 0.46 816.62 0.46Z" id="bDxxIQqhV"></path><path d="M792.94 66C792.94 66 792.94 66 792.94 66C792.94 321.65 792.94 463.68 792.94 492.09C792.94 492.09 792.94 492.09 792.94 492.09C331.4 492.09 74.99 492.09 23.71 492.09C23.71 492.09 23.71 492.09 23.71 492.09C23.71 236.44 23.71 94.41 23.71 66C23.71 66 23.71 66 23.71 66C485.25 66 741.66 66 792.94 66Z" id="b2l26zMXIe"></path><path d="M816.27 0C816.27 0 816.27 0 816.27 0C816.27 20.8 816.27 32.35 816.27 34.66C816.27 34.66 816.27 34.66 816.27 34.66C326.74 34.66 54.77 34.66 0.38 34.66C0.38 34.66 0.38 34.66 0.38 34.66C0.38 13.86 0.38 2.31 0.38 0C0.38 0 0.38 0 0.38 0C489.92 0 761.88 0 816.27 0Z" id="d1kZeA8q8a"></path><path d="M26.14 11.3C22.59 11.3 19.71 14.17 19.71 17.72C19.71 21.27 22.59 24.15 26.14 24.15C29.68 24.15 32.56 21.27 32.56 17.72C32.56 14.17 29.68 11.3 26.14 11.3Z" id="b1YbBBpK0"></path><path d="M50.52 11.3C46.97 11.3 44.1 14.17 44.1 17.72C44.1 21.27 46.97 24.15 50.52 24.15C54.07 24.15 56.94 21.27 56.94 17.72C56.94 14.17 54.07 11.3 50.52 11.3Z" id="gi0jnm36D"></path><path d="M74.91 11.3C71.36 11.3 68.48 14.17 68.48 17.72C68.48 21.27 71.36 24.15 74.91 24.15C78.45 24.15 81.33 21.27 81.33 17.72C81.33 14.17 78.45 11.3 74.91 11.3Z" id="cdQkBxTeV"></path><path d="M269.15 101.05C269.15 101.05 269.15 101.05 269.15 101.05C269.15 198.98 269.15 253.39 269.15 264.27C269.15 264.27 269.15 264.27 269.15 264.27C178.88 264.27 128.73 264.27 118.7 264.27C118.7 264.27 118.7 264.27 118.7 264.27C118.7 166.34 118.7 111.93 118.7 101.05C118.7 101.05 118.7 101.05 118.7 101.05C208.97 101.05 259.12 101.05 269.15 101.05Z" id="j3k9KV5aL"></path><path d="M483.9 101.05C483.9 101.05 483.9 101.05 483.9 101.05C483.9 198.98 483.9 253.39 483.9 264.27C483.9 264.27 483.9 264.27 483.9 264.27C393.63 264.27 343.48 264.27 333.45 264.27C333.45 264.27 333.45 264.27 333.45 264.27C333.45 166.34 333.45 111.93 333.45 101.05C333.45 101.05 333.45 101.05 333.45 101.05C423.72 101.05 473.87 101.05 483.9 101.05Z" id="a2lq2uEIXW"></path><path d="M698.64 101.05C698.64 101.05 698.64 101.05 698.64 101.05C698.64 198.98 698.64 253.39 698.64 264.27C698.64 264.27 698.64 264.27 698.64 264.27C608.37 264.27 558.22 264.27 548.19 264.27C548.19 264.27 548.19 264.27 548.19 264.27C548.19 166.34 548.19 111.93 548.19 101.05C548.19 101.05 548.19 101.05 548.19 101.05C638.46 101.05 688.61 101.05 698.64 101.05Z" id="h7G9HTtbQe"></path><path d="M269.15 293.82C269.15 293.82 269.15 293.82 269.15 293.82C269.15 391.75 269.15 446.16 269.15 457.04C269.15 457.04 269.15 457.04 269.15 457.04C178.88 457.04 128.73 457.04 118.7 457.04C118.7 457.04 118.7 457.04 118.7 457.04C118.7 359.11 118.7 304.7 118.7 293.82C118.7 293.82 118.7 293.82 118.7 293.82C208.97 293.82 259.12 293.82 269.15 293.82Z" id="bkrsEdg11"></path><path d="M483.9 293.82C483.9 293.82 483.9 293.82 483.9 293.82C483.9 391.75 483.9 446.16 483.9 457.04C483.9 457.04 483.9 457.04 483.9 457.04C393.63 457.04 343.48 457.04 333.45 457.04C333.45 457.04 333.45 457.04 333.45 457.04C333.45 359.11 333.45 304.7 333.45 293.82C333.45 293.82 333.45 293.82 333.45 293.82C423.72 293.82 473.87 293.82 483.9 293.82Z" id="d9JZwgGNo"></path><path d="M698.64 293.82C698.64 293.82 698.64 293.82 698.64 293.82C698.64 391.75 698.64 446.16 698.64 457.04C698.64 457.04 698.64 457.04 698.64 457.04C608.37 457.04 558.22 457.04 548.19 457.04C548.19 457.04 548.19 457.04 548.19 457.04C548.19 359.11 548.19 304.7 548.19 293.82C548.19 293.82 548.19 293.82 548.19 293.82C638.46 293.82 688.61 293.82 698.64 293.82Z" id="k2pfPiXSVy"></path><path d="M177.14 148.88C163.1 148.88 151.71 160.27 151.71 174.31C151.71 188.36 163.1 199.75 177.14 199.75C191.19 199.75 202.57 188.36 202.57 174.31C202.57 160.27 191.19 148.88 177.14 148.88Z" id="a5j2R2URf"></path><path d="M167.21 193.78C167.21 193.78 170.39 208.88 170.39 210.47C170.39 210.47 185.49 219.22 185.49 219.22C186.39 219.06 190.89 218.26 199 216.83C201.86 208.25 203.45 203.48 203.77 202.53C203.77 202.53 195.82 190.61 195.82 185.84C190.1 187.43 172.93 192.19 167.21 193.78Z" id="asIsURv3W"></path><path d="M178.64 140.37C178.64 140.37 202.86 150.46 203.53 156.51C203.53 156.51 203.2 171.65 203.2 171.65C203.2 171.65 201.52 159.21 190.75 161.9C190.75 161.9 163.16 162.57 163.16 162.57C162.89 164.99 160.74 184.37 160.47 186.79C160.47 186.79 157.44 182.42 154.08 185.11C150.71 187.8 144.32 159.21 155.09 153.82C159.8 151.13 163.16 136.33 178.64 140.37Z" id="fcWSSs2R8"></path><path d="M257.81 258.16C254 240.99 251.88 231.45 251.45 229.54C248.27 220.01 240.33 212.07 240.33 212.07C237.71 211.15 224.65 206.55 201.13 198.28C201.13 198.28 201.12 198.28 201.12 198.28C200.97 205.39 196.27 211.59 189.47 213.66C177.54 217.63 169.33 204.26 169.33 204.26C166.02 206.79 139.51 227.02 136.2 229.54C136.2 229.54 125.87 238.29 126.67 254.98C126.6 255.6 126.23 258.7 125.57 264.27L260.86 264.27L257.81 258.16Z" id="c1mnM7iDW"></path><path d="M425.83 175.78C425.83 196.01 410.38 212.42 391.31 212.42C372.25 212.42 356.79 196.01 356.79 175.78C356.79 155.54 372.25 139.13 391.31 139.13C410.38 139.13 425.83 155.54 425.83 175.78Z" id="apzUmTNAO"></path><path d="M421.94 194.91C411.91 194.91 403.78 203.04 403.78 213.07C403.78 223.1 411.91 231.23 421.94 231.23C431.97 231.23 440.1 223.1 440.1 213.07C440.1 203.04 431.97 194.91 421.94 194.91Z" id="c1clGEebZZ"></path><path d="M419.02 214.04L394.38 224.42L392.21 219.51L384.65 202.37L409.29 188.75L409.29 188.75L419.02 214.04Z" id="f139EaCj6P"></path><path d="M389.84 161.83C377.84 161.83 368.11 171.56 368.11 183.56C368.11 195.56 377.84 205.28 389.84 205.28C401.84 205.28 411.56 195.56 411.56 183.56C411.56 171.56 401.84 161.83 389.84 161.83Z" id="g2RGgvXYBX"></path><path d="M372.08 181.18C385.73 172.06 389.82 169.88 405.47 173.4C405.53 171.88 405.84 164.27 406.41 150.57L365.96 159.05C369.22 170.85 371.26 178.23 372.08 181.18Z" id="abQNCZrV3g"></path><path d="M459.28 232.91C459.26 232.89 459.25 232.87 459.23 232.85C456.85 230.47 445.5 226.15 437.04 223.15C437.04 223.15 437.03 223.15 437.03 223.15C431.66 221.24 427.46 219.88 427.46 219.88C426.43 218.82 418.25 210.41 417.23 209.36C414.65 212.26 409.21 214.49 404.03 216.07C400.07 217.27 396.04 218.23 391.97 218.95C391.97 218.95 391.96 218.95 391.96 218.95C390.69 223 389.98 225.26 389.84 225.71C389.84 225.71 365.84 243.88 363.9 245.82C363.9 245.82 363.9 245.82 363.89 245.82C363.89 245.83 363.89 245.83 363.89 245.84C363.74 246.06 363.67 246.33 363.71 246.59C363.71 246.6 363.71 246.64 363.71 246.64C362.5 252.44 361.88 258.35 361.85 264.27C368.82 264.27 403.66 264.27 466.37 264.27C466.37 260.59 466.37 258.55 466.37 258.14C466.37 249.71 459.88 232.84 459.88 232.84C459.76 232.85 459.34 232.9 459.28 232.91Z" id="a2J0kgtXxj"></path><path d="M652.07 264.27L600.39 264.27L597.54 236.2L597.37 234.49L597.02 231.1L595.6 216.95L593.81 232.15L590.03 264.27L580.64 264.27L580.99 254.28L581.34 244.14L581.49 240.05C582.65 206.71 583.29 188.18 583.42 184.48C583.27 175.67 586.06 167.07 591.34 160.02C597.29 152.28 606.54 147.8 616.3 147.94C626.26 147.91 635.65 152.54 641.69 160.46C647.15 167.58 650.07 176.32 649.99 185.29C650.05 187.53 650.35 198.74 650.88 218.93L652.07 264.27Z" id="aaVkTZhDf"></path><path d="M616.3 158.9C603.75 158.9 593.57 169.08 593.57 181.63C593.57 194.19 603.75 204.37 616.3 204.37C628.86 204.37 639.03 194.19 639.03 181.63C639.03 169.08 628.86 158.9 616.3 158.9Z" id="c1SuDSvbMa"></path><path d="M604.94 197.87C604.94 197.87 611.43 219.79 604.94 226.28C604.94 226.28 596.82 235.21 596.82 235.21C598.06 236.89 604.29 245.28 615.49 260.38C634.97 236.51 645.8 223.25 647.96 220.6C647.96 220.6 625.23 214.11 630.91 196.25C625.72 196.57 610.13 197.55 604.94 197.87Z" id="f29USSSKn0"></path><path d="M655.88 264.27L655.56 260.99L655.27 257.95L664.1 256.84L674.75 255.51L674.87 258.92L675.06 264.27L675.06 264.27L655.88 264.27Z" id="b1YoylCQuK"></path><path d="M676.38 258.76C676.38 258.76 673.13 238.46 670.69 230.34C670.69 230.34 665.82 222.23 665.82 222.23C665.82 222.23 665.82 222.23 665.82 222.23C665.82 222.22 665.82 222.22 665.82 222.22C662.96 219.36 656.06 218.85 650.88 218.93C647.24 218.97 644.45 219.29 644.45 219.29C642.52 221.32 632.87 231.5 615.49 249.83L600.91 230.44C600.91 230.44 600.91 230.43 600.91 230.43C599.6 230.54 598.3 230.76 597.02 231.1C595.93 231.38 594.86 231.73 593.81 232.15C589.29 234.08 585.13 236.75 581.49 240.05C581.49 240.05 581.48 240.05 581.48 240.05C579.38 241.94 578.15 243.33 578.15 243.33C574.93 250.01 572.51 257.03 570.93 264.27C577.12 264.27 608.05 264.27 663.72 264.27L663.93 260.1L663.93 260.09C670.57 259.38 674.72 258.94 676.38 258.76Z" id="bbZNltQNF"></path><path d="M597.22 177.98C611.9 170.07 617.94 170.4 636.19 177.98C636.68 176.79 640.57 167.3 641.06 166.11C641.06 161.46 637.29 157.69 632.63 157.69C629.37 157.69 603.24 157.69 599.97 157.69C595.32 157.69 591.55 161.46 591.54 166.11C592.68 168.49 596.09 175.61 597.22 177.98Z" id="a4yV5a40o"></path><path d="M188.46 334.1C187.47 334.95 186.67 336.01 186.12 337.2C183.57 341.67 180.13 345.55 176.01 348.62C173.01 350.81 169.19 353.56 169.71 357.61C169.98 358.95 170.47 360.24 171.17 361.41C173.94 367 181.5 371.32 180.75 377.7C183.51 373.09 179.82 370.82 182.58 366.21C183.89 364.02 186.16 361.54 188.14 362.92C188.8 363.38 189.24 364.21 189.93 364.61C191.57 365.58 193.33 363.73 194.78 362.42C199.81 357.91 206.95 359.09 213.2 360.5C216.15 361.16 219.4 362.03 221.14 364.85C223.43 368.56 218.96 372.57 217.83 376.76C217.52 377.98 218.25 379.23 219.47 379.55C219.74 379.61 220.01 379.63 220.28 379.61C222.16 379.42 224.38 379.27 224.49 378.45C226.85 378.53 229.74 378.26 230.76 375.8C231.06 374.83 231.23 373.82 231.24 372.8C231.61 368.67 233.36 364.91 234.52 360.98C235.68 357.05 236.19 352.44 234.23 348.96C233.53 347.8 232.67 346.75 231.66 345.84C220.55 335.08 205.93 333.31 191.94 333.33C190.73 333.23 189.52 333.5 188.46 334.1Z" id="a1Uk7mXsKj"></path><path d="M176.72 407.52C176.72 407.52 184.78 436.53 184.78 436.53C187.47 436.85 200.9 438.46 225.07 441.36C219.27 422.02 216.05 411.28 215.4 409.13C215.4 409.13 208.96 406.71 212.99 390.59C217.01 374.48 183.17 385.76 183.17 385.76C181.88 390.11 185.59 405.9 176.72 407.52Z" id="c3HS6GyuHi"></path><path d="M201.3 350.71C187.95 350.71 177.13 361.53 177.13 374.88C177.13 388.23 187.95 399.06 201.3 399.06C214.65 399.06 225.48 388.23 225.48 374.88C225.48 361.53 214.65 350.71 201.3 350.71Z" id="a6OT8omyqs"></path><path d="M159.69 457.04C163.97 440.23 169.87 417.59 169.87 417.59C169.87 417.59 172.17 418.06 175.78 418.59C181.07 419.38 186.39 419.86 191.72 420.04C198.56 420.23 205.75 419.78 211.31 417.85C213.41 417.18 215.37 416.13 217.09 414.76C217.82 414.18 218.47 413.5 219.03 412.76C228.7 399.86 232.73 449.01 232.73 449.01C232.78 449.55 233.03 452.23 233.48 457.04C194.12 457.04 169.53 457.04 159.69 457.04Z" id="b2idOkRiiL"></path><path d="M235.97 509.01C236.25 508.5 236.4 508.21 236.43 508.15C236.59 508.42 236.75 508.7 236.93 508.98C236.61 508.98 236.29 508.99 235.97 509.01Z" id="kjD3A3eZx"></path><path d="M190.29 340.2C189.5 340.78 188.84 341.53 188.38 342.39C186.23 345.62 183.43 348.37 180.15 350.46C177.71 352.01 174.6 353.95 175.02 356.82C175.24 357.78 175.65 358.69 176.21 359.5C178.47 363.49 179.37 368.11 178.77 372.66C179.45 371.68 184.82 363.87 185.49 362.89C186.56 361.34 188.41 359.59 190.03 360.57C190.56 360.89 190.92 361.48 191.48 361.76C192.82 362.45 194.25 361.14 195.43 360.22C199.52 357.03 205.34 357.86 210.43 358.86C212.83 359.33 215.47 359.94 216.89 361.93C219.25 365.25 216.78 370.04 218.16 373.86C218.94 373.32 219.46 372.48 219.62 371.54C221.54 371.6 223.89 371.41 224.71 369.67C224.96 368.99 225.1 368.28 225.11 367.55C225.41 364.63 226.84 361.97 227.78 359.19C228.73 356.42 229.14 353.16 227.54 350.7C226.96 349.87 226.26 349.12 225.45 348.5C216.41 340.89 204.51 339.64 193.12 339.65C192.14 339.58 191.17 339.77 190.29 340.2Z" id="dNFtsTJmB"></path><path d="M181.89 402.49C181.89 402.49 181.89 402.48 181.89 402.48C181.89 402.48 173.1 397.45 170.68 402.28C170.68 402.28 145.7 419.2 143.28 419.2C143.26 419.21 143.24 419.21 143.22 419.22C142.26 419.54 130.26 423.9 127.17 440.15C126.33 445.75 125.89 451.39 125.83 457.04C132.4 457.04 184.97 457.04 191.55 457.04C192.22 449.92 192.73 443.26 192.93 437.51C193.22 429.49 192.94 423.25 191.72 420.04C191.53 419.44 191.23 418.88 190.83 418.39C185.31 412.09 182.04 402.9 181.89 402.49Z" id="b1olgzqGEx"></path><path d="M247.23 422.43C247.12 422 246.94 421.59 246.69 421.23C246.68 421.22 246.68 421.21 246.68 421.2C242.03 413.99 212.09 404.06 212.09 404.06C211.98 404.44 211.08 407.54 210.97 407.92C210.97 407.92 211.11 411.74 211.31 417.85C211.51 423.57 211.75 431.31 211.98 439.8C212.14 445.34 212.28 451.21 212.41 457.04C216.89 457.04 252.71 457.04 257.19 457.04C254.68 445.46 251.38 434.06 247.33 422.93C247.29 422.74 247.26 422.58 247.23 422.43Z" id="eoCrk7Qoe"></path><path d="M666.27 457.04L669.7 440.3L672.88 438.96C672.9 438.96 672.9 438.97 672.9 438.97C673.19 439.08 676.66 440.54 676.66 446.11C676.66 447.23 676.49 451.25 676.21 457.04C674.88 457.04 671.57 457.04 666.27 457.04Z" id="c5tFUETe9C"></path><path d="M630.29 342.93C614.92 342.93 602.46 355.38 602.46 370.75C602.46 386.12 614.92 398.57 630.29 398.57C645.65 398.57 658.11 386.12 658.11 370.75C658.11 355.38 645.65 342.93 630.29 342.93Z" id="d2pD1vYK2i"></path><path d="M645.36 434.51L609.42 413.64L614.06 386.98L647.68 386.98L647.68 386.98L645.36 434.51Z" id="aM2ao5sDR"></path><path d="M655.75 457.04L636.89 457.04L616.41 417.7L610.64 406.62L607.87 404.82L611.08 404.09L613.6 405.92L641.88 426.4L646.41 412.79L646.53 412.44L647.67 409.01L658.11 436.83L658.11 436.83L655.75 457.04Z" id="dwX6O3bpu"></path><path d="M636.66 329.6C636.43 329.71 634.58 330.64 634.34 330.76C634.34 330.76 652.89 328.44 650.57 338.87C650.57 338.87 665.64 348.14 662.17 358.58C660.12 364.63 658.57 370.83 657.53 377.13C657.18 376.78 654.4 374 654.05 373.65C654.05 373.65 650.57 350.46 629.71 352.78C614.06 354.52 607.68 361.91 606.05 367.24C605.3 369.74 604.34 372.18 603.19 374.52C603.06 374.55 602.01 374.78 601.88 374.81C601.88 374.81 594.93 349.3 613.48 343.51C613.48 343.51 616.96 326.12 636.66 329.6Z" id="b3wrVk3Alv"></path><path d="M672.88 438.96L658.11 425.23L658.11 415.96L646.7 406.97L646.54 412.44L645.36 449.58L626.39 423.49L613.6 405.92L611.31 402.77L611.87 399.82L604.78 407.84L579.16 427.07C577.84 428.06 577.1 428.61 576.96 428.72C574.44 431.24 572.11 433.95 570.01 436.83C569.32 437.86 566.18 446.05 562.1 457.04C573.51 457.04 664.8 457.04 676.21 457.04C676.49 451.25 676.66 447.23 676.66 446.11C676.66 440.54 673.19 439.08 672.9 438.97C672.9 438.96 672.89 438.96 672.88 438.96Z" id="b3iWYklzN"></path><path d="M406.38 340.19C387.53 340.19 372.25 357.15 372.25 378.07C372.25 379.85 372.25 388.71 372.25 404.66L380.42 404.66L385.15 394.81L383.97 404.66L436.52 404.66L440.82 395.7L439.75 404.66L445.67 404.66C445.67 392.13 445.67 385.18 445.67 383.78C445.67 359.71 428.08 340.19 406.38 340.19C406.38 340.19 406.38 340.19 406.38 340.19Z" id="aaBf6hhUn"></path><path d="M378.83 457.04L356.63 457.04C356.5 446.18 356.43 440.14 356.42 438.94C356.41 438.75 356.41 438.57 356.41 438.38C356.71 438.04 358.19 436.38 360.85 433.37L360.93 433.28L377.9 444.03L378.83 457.04Z" id="iliQSz69p"></path><path d="M403.36 352.34C389.94 352.34 379.06 363.22 379.06 376.64C379.06 390.06 389.94 400.94 403.36 400.94C416.78 400.94 427.66 390.06 427.66 376.64C427.66 363.22 416.78 352.34 403.36 352.34Z" id="b1gnosoCGu"></path><path d="M389.43 391.22C389.43 391.22 396.56 428.16 393.32 432.05C393.32 432.05 427.66 424.92 427.66 424.92C427.66 424.92 415.35 399.65 421.83 385.39C415.35 386.56 395.91 390.06 389.43 391.22Z" id="cJuaNlWkV"></path><path d="M455.35 416.2C454.78 414.99 453.79 414.03 452.57 413.49C447.8 411.48 443.7 409.94 440.32 408.77C434.35 406.72 427.83 406.92 422 409.34C421.43 409.57 420.87 409.82 420.32 410.1C420.32 410.1 396.56 414.62 393.74 414.06C393.53 414.02 393.31 413.99 393.1 413.97C392.67 413.9 392.24 413.87 391.81 413.86C386.28 413.6 380.79 414.96 376.03 417.77C368.23 422.3 356.66 430.32 356.42 438.13C356.4 438.14 356.33 438.23 356.2 438.38L356.42 457.04C419 457.04 453.76 457.04 460.72 457.04C460.93 439.16 461.05 425.71 461.05 424.8C461.05 421.98 455.36 416.2 455.36 416.2C455.36 416.2 455.35 416.2 455.35 416.2Z" id="bjZNPGu9j"></path><path d="M401.96 343.42C401.89 343.42 401.36 343.42 401.29 343.42C388.37 343.42 377.89 355.11 377.89 369.53C377.89 369.53 377.89 369.53 377.89 369.53L382.22 369.53L382.92 364.21L383.95 369.53L409.63 369.53L411.78 365.03L411.24 369.53C414.27 369.53 415.96 369.53 416.29 369.53C418.65 381.24 415.26 392.95 406.13 404.66L414.74 404.66L419.04 395.65L417.97 404.66L434.37 404.66C436.31 392.23 437.38 385.32 437.6 383.94C437.6 368.43 428.58 355.28 416.09 350.63C412.76 346.15 407.54 343.49 401.96 343.42Z" id="l1xloiuYCc"></path><path d="M420.8 327.23C413.74 327.23 408.02 332.96 408.02 340.02C408.02 347.08 413.74 352.81 420.8 352.81C427.87 352.81 433.59 347.08 433.59 340.02C433.59 332.96 427.87 327.23 420.8 327.23Z" id="b1NTDKZ0iB"></path></defs><g><g><g><use xlink:href="#b2g793sGfq" opacity="1" fill="#000000" fill-opacity="1"></use><g><use xlink:href="#b2g793sGfq" opacity="1" fill-opacity="0" stroke="#000000" stroke-width="1" stroke-opacity="0"></use></g></g><g><use xlink:href="#bDxxIQqhV" opacity="1" fill="#e6e6e6" fill-opacity="1"></use><g><use xlink:href="#bDxxIQqhV" opacity="1" fill-opacity="0" stroke="#000000" stroke-width="1" stroke-opacity="0"></use></g></g><g><use xlink:href="#b2l26zMXIe" opacity="1" fill="#fafafa" fill-opacity="1"></use><g><use xlink:href="#b2l26zMXIe" opacity="1" fill-opacity="0" stroke="#000000" stroke-width="1" stroke-opacity="0"></use></g></g><g><use xlink:href="#d1kZeA8q8a" opacity="1" fill="#00c6b3" fill-opacity="1"></use><g><use xlink:href="#d1kZeA8q8a" opacity="1" fill-opacity="0" stroke="#000000" stroke-width="1" stroke-opacity="0"></use></g></g><g><use xlink:href="#b1YbBBpK0" opacity="1" fill="#1f2327" fill-opacity="1"></use><g><use xlink:href="#b1YbBBpK0" opacity="1" fill-opacity="0" stroke="#000000" stroke-width="1" stroke-opacity="0"></use></g></g><g><use xlink:href="#gi0jnm36D" opacity="1" fill="#1f2327" fill-opacity="1"></use><g><use xlink:href="#gi0jnm36D" opacity="1" fill-opacity="0" stroke="#000000" stroke-width="1" stroke-opacity="0"></use></g></g><g><use xlink:href="#cdQkBxTeV" opacity="1" fill="#1f2327" fill-opacity="1"></use><g><use xlink:href="#cdQkBxTeV" opacity="1" fill-opacity="0" stroke="#000000" stroke-width="1" stroke-opacity="0"></use></g></g><g><use xlink:href="#j3k9KV5aL" opacity="1" fill="#e6e6e6" fill-opacity="1"></use><g><use xlink:href="#j3k9KV5aL" opacity="1" fill-opacity="0" stroke="#000000" stroke-width="1" stroke-opacity="0"></use></g></g><g><use xlink:href="#a2lq2uEIXW" opacity="1" fill="#e6e6e6" fill-opacity="1"></use><g><use xlink:href="#a2lq2uEIXW" opacity="1" fill-opacity="0" stroke="#000000" stroke-width="1" stroke-opacity="0"></use></g></g><g><use xlink:href="#h7G9HTtbQe" opacity="1" fill="#e6e6e6" fill-opacity="1"></use><g><use xlink:href="#h7G9HTtbQe" opacity="1" fill-opacity="0" stroke="#000000" stroke-width="1" stroke-opacity="0"></use></g></g><g><use xlink:href="#bkrsEdg11" opacity="1" fill="#e6e6e6" fill-opacity="1"></use><g><use xlink:href="#bkrsEdg11" opacity="1" fill-opacity="0" stroke="#000000" stroke-width="1" stroke-opacity="0"></use></g></g><g><use xlink:href="#d9JZwgGNo" opacity="1" fill="#e6e6e6" fill-opacity="1"></use><g><use xlink:href="#d9JZwgGNo" opacity="1" fill-opacity="0" stroke="#000000" stroke-width="1" stroke-opacity="0"></use></g></g><g><use xlink:href="#k2pfPiXSVy" opacity="1" fill="#e6e6e6" fill-opacity="1"></use><g><use xlink:href="#k2pfPiXSVy" opacity="1" fill-opacity="0" stroke="#000000" stroke-width="1" stroke-opacity="0"></use></g></g><g><use xlink:href="#a5j2R2URf" opacity="1" fill="#ffb9b9" fill-opacity="1"></use><g><use xlink:href="#a5j2R2URf" opacity="1" fill-opacity="0" stroke="#000000" stroke-width="1" stroke-opacity="0"></use></g></g><g><use xlink:href="#asIsURv3W" opacity="1" fill="#ffb9b9" fill-opacity="1"></use><g><use xlink:href="#asIsURv3W" opacity="1" fill-opacity="0" stroke="#000000" stroke-width="1" stroke-opacity="0"></use></g></g><g><use xlink:href="#fcWSSs2R8" opacity="1" fill="#2f2e41" fill-opacity="1"></use><g><use xlink:href="#fcWSSs2R8" opacity="1" fill-opacity="0" stroke="#000000" stroke-width="1" stroke-opacity="0"></use></g></g><g><use xlink:href="#c1mnM7iDW" opacity="1" fill="#6c63ff" fill-opacity="1"></use><g><use xlink:href="#c1mnM7iDW" opacity="1" fill-opacity="0" stroke="#000000" stroke-width="1" stroke-opacity="0"></use></g></g><g><use xlink:href="#apzUmTNAO" opacity="1" fill="#2f2e41" fill-opacity="1"></use><g><use xlink:href="#apzUmTNAO" opacity="1" fill-opacity="0" stroke="#000000" stroke-width="1" stroke-opacity="0"></use></g></g><g><use xlink:href="#c1clGEebZZ" opacity="1" fill="#2f2e41" fill-opacity="1"></use><g><use xlink:href="#c1clGEebZZ" opacity="1" fill-opacity="0" stroke="#000000" stroke-width="1" stroke-opacity="0"></use></g></g><g><use xlink:href="#f139EaCj6P" opacity="1" fill="#9f616a" fill-opacity="1"></use><g><use xlink:href="#f139EaCj6P" opacity="1" fill-opacity="0" stroke="#000000" stroke-width="1" stroke-opacity="0"></use></g></g><g><use xlink:href="#g2RGgvXYBX" opacity="1" fill="#9f616a" fill-opacity="1"></use><g><use xlink:href="#g2RGgvXYBX" opacity="1" fill-opacity="0" stroke="#000000" stroke-width="1" stroke-opacity="0"></use></g></g><g><use xlink:href="#abQNCZrV3g" opacity="1" fill="#2f2e41" fill-opacity="1"></use><g><use xlink:href="#abQNCZrV3g" opacity="1" fill-opacity="0" stroke="#000000" stroke-width="1" stroke-opacity="0"></use></g></g><g><use xlink:href="#a2J0kgtXxj" opacity="1" fill="#575a89" fill-opacity="1"></use><g><use xlink:href="#a2J0kgtXxj" opacity="1" fill-opacity="0" stroke="#000000" stroke-width="1" stroke-opacity="0"></use></g></g><g><use xlink:href="#aaVkTZhDf" opacity="1" fill="#2f2e41" fill-opacity="1"></use><g><use xlink:href="#aaVkTZhDf" opacity="1" fill-opacity="0" stroke="#000000" stroke-width="1" stroke-opacity="0"></use></g></g><g><use xlink:href="#c1SuDSvbMa" opacity="1" fill="#fbbebe" fill-opacity="1"></use><g><use xlink:href="#c1SuDSvbMa" opacity="1" fill-opacity="0" stroke="#000000" stroke-width="1" stroke-opacity="0"></use></g></g><g><use xlink:href="#f29USSSKn0" opacity="1" fill="#fbbebe" fill-opacity="1"></use><g><use xlink:href="#f29USSSKn0" opacity="1" fill-opacity="0" stroke="#000000" stroke-width="1" stroke-opacity="0"></use></g></g><g><use xlink:href="#b1YoylCQuK" opacity="1" fill="#fbbebe" fill-opacity="1"></use><g><use xlink:href="#b1YoylCQuK" opacity="1" fill-opacity="0" stroke="#000000" stroke-width="1" stroke-opacity="0"></use></g></g><g><use xlink:href="#bbZNltQNF" opacity="1" fill="#6c63ff" fill-opacity="1"></use><g><use xlink:href="#bbZNltQNF" opacity="1" fill-opacity="0" stroke="#000000" stroke-width="1" stroke-opacity="0"></use></g></g><g><use xlink:href="#a4yV5a40o" opacity="1" fill="#2f2e41" fill-opacity="1"></use><g><use xlink:href="#a4yV5a40o" opacity="1" fill-opacity="0" stroke="#000000" stroke-width="1" stroke-opacity="0"></use></g></g><g><use xlink:href="#a1Uk7mXsKj" opacity="1" fill="#2f2e41" fill-opacity="1"></use><g><use xlink:href="#a1Uk7mXsKj" opacity="1" fill-opacity="0" stroke="#000000" stroke-width="1" stroke-opacity="0"></use></g></g><g><use xlink:href="#c3HS6GyuHi" opacity="1" fill="#9f616a" fill-opacity="1"></use><g><use xlink:href="#c3HS6GyuHi" opacity="1" fill-opacity="0" stroke="#000000" stroke-width="1" stroke-opacity="0"></use></g></g><g><use xlink:href="#a6OT8omyqs" opacity="1" fill="#9f616a" fill-opacity="1"></use><g><use xlink:href="#a6OT8omyqs" opacity="1" fill-opacity="0" stroke="#000000" stroke-width="1" stroke-opacity="0"></use></g></g><g><use xlink:href="#b2idOkRiiL" opacity="1" fill="#6c63ff" fill-opacity="1"></use><g><use xlink:href="#b2idOkRiiL" opacity="1" fill-opacity="0" stroke="#000000" stroke-width="1" stroke-opacity="0"></use></g></g><g><use xlink:href="#kjD3A3eZx" opacity="1" fill="#ffb8b8" fill-opacity="1"></use><g><use xlink:href="#kjD3A3eZx" opacity="1" fill-opacity="0" stroke="#000000" stroke-width="1" stroke-opacity="0"></use></g></g><g><use xlink:href="#dNFtsTJmB" opacity="1" fill="#2f2e41" fill-opacity="1"></use><g><use xlink:href="#dNFtsTJmB" opacity="1" fill-opacity="0" stroke="#000000" stroke-width="1" stroke-opacity="0"></use></g></g><g><use xlink:href="#b1olgzqGEx" opacity="1" fill="#2f2e41" fill-opacity="1"></use><g><use xlink:href="#b1olgzqGEx" opacity="1" fill-opacity="0" stroke="#000000" stroke-width="1" stroke-opacity="0"></use></g></g><g><use xlink:href="#eoCrk7Qoe" opacity="1" fill="#2f2e41" fill-opacity="1"></use><g><use xlink:href="#eoCrk7Qoe" opacity="1" fill-opacity="0" stroke="#000000" stroke-width="1" stroke-opacity="0"></use></g></g><g><use xlink:href="#c5tFUETe9C" opacity="1" fill="#575a89" fill-opacity="1"></use><g><use xlink:href="#c5tFUETe9C" opacity="1" fill-opacity="0" stroke="#000000" stroke-width="1" stroke-opacity="0"></use></g></g><g><use xlink:href="#d2pD1vYK2i" opacity="1" fill="#ffb8b8" fill-opacity="1"></use><g><use xlink:href="#d2pD1vYK2i" opacity="1" fill-opacity="0" stroke="#000000" stroke-width="1" stroke-opacity="0"></use></g></g><g><use xlink:href="#aM2ao5sDR" opacity="1" fill="#ffb8b8" fill-opacity="1"></use><g><use xlink:href="#aM2ao5sDR" opacity="1" fill-opacity="0" stroke="#000000" stroke-width="1" stroke-opacity="0"></use></g></g><g><use xlink:href="#dwX6O3bpu" opacity="1" fill="#6c63ff" fill-opacity="1"></use><g><use xlink:href="#dwX6O3bpu" opacity="1" fill-opacity="0" stroke="#000000" stroke-width="1" stroke-opacity="0"></use></g></g><g><use xlink:href="#b3wrVk3Alv" opacity="1" fill="#2f2e41" fill-opacity="1"></use><g><use xlink:href="#b3wrVk3Alv" opacity="1" fill-opacity="0" stroke="#000000" stroke-width="1" stroke-opacity="0"></use></g></g><g><use xlink:href="#b3iWYklzN" opacity="1" fill="#2f2e41" fill-opacity="1"></use><g><use xlink:href="#b3iWYklzN" opacity="1" fill-opacity="0" stroke="#000000" stroke-width="1" stroke-opacity="0"></use></g></g><g><use xlink:href="#aaBf6hhUn" opacity="1" fill="#2f2e41" fill-opacity="1"></use><g><use xlink:href="#aaBf6hhUn" opacity="1" fill-opacity="0" stroke="#000000" stroke-width="1" stroke-opacity="0"></use></g></g><g><use xlink:href="#iliQSz69p" opacity="1" fill="#d0cde1" fill-opacity="1"></use><g><use xlink:href="#iliQSz69p" opacity="1" fill-opacity="0" stroke="#000000" stroke-width="1" stroke-opacity="0"></use></g></g><g><use xlink:href="#b1gnosoCGu" opacity="1" fill="#fbbebe" fill-opacity="1"></use><g><use xlink:href="#b1gnosoCGu" opacity="1" fill-opacity="0" stroke="#000000" stroke-width="1" stroke-opacity="0"></use></g></g><g><use xlink:href="#cJuaNlWkV" opacity="1" fill="#fbbebe" fill-opacity="1"></use><g><use xlink:href="#cJuaNlWkV" opacity="1" fill-opacity="0" stroke="#000000" stroke-width="1" stroke-opacity="0"></use></g></g><g><use xlink:href="#bjZNPGu9j" opacity="1" fill="#6c63ff" fill-opacity="1"></use><g><use xlink:href="#bjZNPGu9j" opacity="1" fill-opacity="0" stroke="#000000" stroke-width="1" stroke-opacity="0"></use></g></g><g><use xlink:href="#l1xloiuYCc" opacity="1" fill="#2f2e41" fill-opacity="1"></use><g><use xlink:href="#l1xloiuYCc" opacity="1" fill-opacity="0" stroke="#000000" stroke-width="1" stroke-opacity="0"></use></g></g><g><use xlink:href="#b1NTDKZ0iB" opacity="1" fill="#2f2e41" fill-opacity="1"></use><g><use xlink:href="#b1NTDKZ0iB" opacity="1" fill-opacity="0" stroke="#000000" stroke-width="1" stroke-opacity="0"></use></g></g></g></g></svg>