<svg xmlns="http://www.w3.org/2000/svg" xmlns:xlink="http://www.w3.org/1999/xlink" width="1057" height="570" preserveAspectRatio="xMidYMid meet" version="1.1" viewBox="0 0 1057 570"><defs><path id="aaquY3BeF" d="M916.75 237.28C902.36 214.82 886.19 193.55 868.41 173.68C839.49 180.86 694.88 216.81 434.59 281.5C669.7 191.81 800.33 141.99 826.45 132.02C808.54 116.22 789.53 101.73 769.55 88.65C703.44 99.3 174.61 184.48 108.5 195.12C38.31 282.89 0.05 391.91 0 504.29C99.51 504.29 895.55 504.29 995.05 504.29C995.01 417.14 971.97 331.54 928.25 256.14C928.25 256.14 894.9 271.92 828.22 303.48C881.33 263.76 910.85 241.7 916.75 237.28Z"/><path id="bbYlUUUf4" d="M916.75 237.28C902.36 214.82 886.19 193.55 868.41 173.68C839.49 180.86 694.88 216.81 434.59 281.5C669.7 191.81 800.33 141.99 826.45 132.02C808.54 116.22 789.53 101.73 769.55 88.65C703.44 99.3 174.61 184.48 108.5 195.12C38.31 282.89 0.05 391.91 0 504.29C99.51 504.29 895.55 504.29 995.05 504.29C995.01 417.14 971.97 331.54 928.25 256.14C928.25 256.14 894.9 271.92 828.22 303.48C881.33 263.76 910.85 241.7 916.75 237.28Z"/><path id="d10oJpFyjK" d="M115.18 186.94C271.45 152.7 543.55 93.42 715.44 57.91C647.57 24.81 573.04 7.65 497.53 7.76C343.84 7.76 206.44 77.45 115.18 186.94Z"/><path id="b8usP3Ivz" d="M353.66 502.3C353.66 486.85 497.24 508.29 674.36 508.29C851.48 508.29 995.06 486.85 995.06 502.3C995.06 517.75 851.48 564.24 674.36 564.24C497.24 564.24 353.66 517.75 353.66 502.3Z"/><path id="a2fQpxDZ6" d="M353.66 502.3C353.66 486.85 497.24 508.29 674.36 508.29C851.48 508.29 995.06 486.85 995.06 502.3C995.06 517.75 851.48 564.24 674.36 564.24C497.24 564.24 353.66 517.75 353.66 502.3Z"/><path id="e1R9HQZ5sJ" d="M353.66 502.3C353.66 486.85 497.24 508.29 674.36 508.29C851.48 508.29 995.06 486.85 995.06 502.3C995.06 517.75 851.48 564.24 674.36 564.24C497.24 564.24 353.66 517.75 353.66 502.3Z"/><path id="fAJyDIAG" d="M353.66 502.3C353.66 486.85 497.24 508.29 674.36 508.29C851.48 508.29 995.06 486.85 995.06 502.3C995.06 517.75 851.48 564.24 674.36 564.24C497.24 564.24 353.66 517.75 353.66 502.3Z"/><path id="e66dmEIVps" d="M674.36 530.27C497.24 530.27 353.66 517.75 353.66 502.3C353.66 486.85 497.24 474.32 674.36 474.32C851.48 474.32 995.06 486.85 995.06 502.3C995.06 517.75 851.48 530.27 674.36 530.27Z"/><path id="bx7WkfI4d" d="M674.36 530.27C497.24 530.27 353.66 517.75 353.66 502.3C353.66 486.85 497.24 474.32 674.36 474.32C851.48 474.32 995.06 486.85 995.06 502.3C995.06 517.75 851.48 530.27 674.36 530.27Z"/><path id="a3dZ722w8" d="M593.38 300.63C593.38 300.63 627.94 306.31 627.94 306.31C627.94 306.31 622.06 276.55 623.79 269.7C616.05 270.69 592.83 273.65 585.09 274.64C586.75 279.84 597.99 295.09 593.38 300.63Z"/><path id="b3cwJpUPv" d="M593.38 300.63C593.38 300.63 627.94 306.31 627.94 306.31C627.94 306.31 622.06 276.55 623.79 269.7C616.05 270.69 592.83 273.65 585.09 274.64C586.75 279.84 597.99 295.09 593.38 300.63Z"/><path id="c16Y3B5WUJ" d="M593.38 300.63C593.38 300.63 627.94 306.31 627.94 306.31C627.94 306.31 622.06 276.55 623.79 269.7C616.05 270.69 592.83 273.65 585.09 274.64C586.75 279.84 597.99 295.09 593.38 300.63Z"/><path id="cEZpoOsyB" d="M593.38 300.63C593.38 300.63 627.94 306.31 627.94 306.31C627.94 306.31 622.06 276.55 623.79 269.7C616.05 270.69 592.83 273.65 585.09 274.64C586.75 279.84 597.99 295.09 593.38 300.63Z"/><path id="b3qlxQQWUf" d="M565.26 241.6C565.26 263.94 583.37 282.05 605.7 282.05C628.04 282.05 646.15 263.94 646.15 241.6C646.15 219.27 628.04 201.16 605.7 201.16C583.37 201.16 565.26 219.27 565.26 241.6Z"/><path id="c1eBXgg96D" d="M565.26 241.6C565.26 263.94 583.37 282.05 605.7 282.05C628.04 282.05 646.15 263.94 646.15 241.6C646.15 219.27 628.04 201.16 605.7 201.16C583.37 201.16 565.26 219.27 565.26 241.6Z"/><path id="b2ANtd6ab0" d="M724.81 479.82L722.81 462.83L700.84 460.84L700.84 460.84L700.84 484.81L724.81 479.82Z"/><path id="b1nSaIK6NL" d="M724.81 479.82L722.81 462.83L700.84 460.84L700.84 460.84L700.84 484.81L724.81 479.82Z"/><path id="b58BfbDAUN" d="M835.71 500.8C835.71 500.8 788.75 484.81 776.76 484.81C764.77 484.81 785.75 464.83 785.75 464.83C794.68 466.3 816.99 469.96 852.69 475.82C842.5 490.81 836.84 499.13 835.71 500.8Z"/><path id="avmaETTWK" d="M835.71 500.8C835.71 500.8 788.75 484.81 776.76 484.81C764.77 484.81 785.75 464.83 785.75 464.83C794.68 466.3 816.99 469.96 852.69 475.82C842.5 490.81 836.84 499.13 835.71 500.8Z"/><path id="c1SFKLVv2o" d="M699.84 361.93C699.84 361.93 722.81 382.91 722.81 382.91C723.71 391.8 730.91 462.93 731.81 471.83C731.81 471.83 699.84 474.82 699.84 471.83C699.84 471.83 693.84 404.89 693.84 404.89C693.84 404.89 646.89 508.79 621.91 439.86C624.31 435.26 631.5 421.47 633.9 416.88C647.09 405.89 683.85 358.93 699.84 361.93Z"/><path id="ahBMjV5F2" d="M699.84 361.93C699.84 361.93 722.81 382.91 722.81 382.91C723.71 391.8 730.91 462.93 731.81 471.83C731.81 471.83 699.84 474.82 699.84 471.83C699.84 471.83 693.84 404.89 693.84 404.89C693.84 404.89 646.89 508.79 621.91 439.86C624.31 435.26 631.5 421.47 633.9 416.88C647.09 405.89 683.85 358.93 699.84 361.93Z"/><path id="amJzDZr1T" d="M583.94 508.79C583.94 508.79 646.89 488.81 646.89 488.81C652.28 486.22 695.44 465.55 700.83 462.96C700.83 462.96 764.77 496.8 783.76 487.81C783.76 487.81 803.74 466.83 790.75 460.84C777.76 454.84 789.75 460.84 789.75 460.84C782.06 456.84 720.52 424.87 712.82 420.87C712.82 420.87 697.84 416.88 671.86 427.87C671.86 427.87 610.92 443.85 610.92 443.85C599.33 446.25 564.56 453.44 552.97 455.84C559.16 466.43 553.97 505.79 583.94 508.79Z"/><path id="c1nquk6SMT" d="M583.94 508.79C583.94 508.79 646.89 488.81 646.89 488.81C652.28 486.22 695.44 465.55 700.83 462.96C700.83 462.96 764.77 496.8 783.76 487.81C783.76 487.81 803.74 466.83 790.75 460.84C777.76 454.84 789.75 460.84 789.75 460.84C782.06 456.84 720.52 424.87 712.82 420.87C712.82 420.87 697.84 416.88 671.86 427.87C671.86 427.87 610.92 443.85 610.92 443.85C599.33 446.25 564.56 453.44 552.97 455.84C559.16 466.43 553.97 505.79 583.94 508.79Z"/><path id="aa7qIpBjk" d="M572.96 255.03C572.96 271.58 586.37 285 602.93 285C619.48 285 632.9 271.58 632.9 255.03C632.9 238.48 619.48 225.06 602.93 225.06C586.37 225.06 572.96 238.48 572.96 255.03Z"/><path id="e8JEfSLRV" d="M572.96 255.03C572.96 271.58 586.37 285 602.93 285C619.48 285 632.9 271.58 632.9 255.03C632.9 238.48 619.48 225.06 602.93 225.06C586.37 225.06 572.96 238.48 572.96 255.03Z"/><path id="a2OpCfMIHg" d="M643.89 380.91C643.89 380.91 644.89 435.86 635.9 439.86C631.35 441.87 622.22 445.93 613.78 450.37C607.44 453.68 601.5 457.2 598.18 460.23C597.3 460.97 596.54 461.85 595.93 462.83C591.94 469.83 565.96 468.83 559.97 463.83C553.97 458.84 557.97 469.83 552.97 471.83C548.14 473.76 541.43 457.92 545.54 434.26C545.67 433.47 545.82 432.67 545.98 431.86C550.57 408.93 543.36 354.02 544.47 332.8C544.54 331.17 544.71 329.56 544.98 327.96C547.98 311.98 586.22 279.45 593.38 293.3C602.19 310.41 622.43 294.78 625.91 287C645.89 286 652.88 309.98 652.88 309.98C651.95 313.84 649.62 323.5 645.89 338.95C644.69 364.13 644.02 378.11 643.89 380.91Z"/><path id="a13PtRnSBd" d="M643.89 380.91C643.89 380.91 644.89 435.86 635.9 439.86C631.35 441.87 622.22 445.93 613.78 450.37C607.44 453.68 601.5 457.2 598.18 460.23C597.3 460.97 596.54 461.85 595.93 462.83C591.94 469.83 565.96 468.83 559.97 463.83C553.97 458.84 557.97 469.83 552.97 471.83C548.14 473.76 541.43 457.92 545.54 434.26C545.67 433.47 545.82 432.67 545.98 431.86C550.57 408.93 543.36 354.02 544.47 332.8C544.54 331.17 544.71 329.56 544.98 327.96C547.98 311.98 586.22 279.45 593.38 293.3C602.19 310.41 622.43 294.78 625.91 287C645.89 286 652.88 309.98 652.88 309.98C651.95 313.84 649.62 323.5 645.89 338.95C644.69 364.13 644.02 378.11 643.89 380.91Z"/><path id="a1kF0E7okQ" d="M695.84 489.81C695.84 489.81 689.85 509.79 698.84 510.79C698.84 510.79 744.79 509.79 752.79 512.79C752.79 512.79 788.75 513.79 785.75 498.8C782.76 483.81 767.77 484.81 767.77 484.81C767.77 484.81 726.81 482.81 726.81 475.82C722.61 476.82 710.83 481.82 705.83 480.82C703.83 482.62 695.84 483.81 695.84 489.81Z"/><path id="a5NqGcEv5C" d="M695.84 489.81C695.84 489.81 689.85 509.79 698.84 510.79C698.84 510.79 744.79 509.79 752.79 512.79C752.79 512.79 788.75 513.79 785.75 498.8C782.76 483.81 767.77 484.81 767.77 484.81C767.77 484.81 726.81 482.81 726.81 475.82C722.61 476.82 710.83 481.82 705.83 480.82C703.83 482.62 695.84 483.81 695.84 489.81Z"/><path id="d1bVWkzyoF" d="M878.67 475.82C878.67 475.82 916.63 472.82 910.64 489.81C910.64 489.81 884.66 508.79 884.66 508.79C884.66 508.79 848.7 504.79 843.7 505.79C843.7 505.79 820.72 505.79 823.72 500.8C826.72 495.8 845.7 486.81 843.7 478.82C844.7 477.62 845.7 472.82 848.7 472.82C854.69 473.42 875.67 476.82 878.67 475.82Z"/><path id="fQkwBl4sP" d="M878.67 475.82C878.67 475.82 916.63 472.82 910.64 489.81C910.64 489.81 884.66 508.79 884.66 508.79C884.66 508.79 848.7 504.79 843.7 505.79C843.7 505.79 820.72 505.79 823.72 500.8C826.72 495.8 845.7 486.81 843.7 478.82C844.7 477.62 845.7 472.82 848.7 472.82C854.69 473.42 875.67 476.82 878.67 475.82Z"/><path id="d1dKkWnb8e" d="M758.21 358.69C755.73 366.46 735.84 428.62 733.35 436.39C733.11 437.13 732.32 437.54 731.58 437.3C731.05 437.13 730.67 436.67 730.6 436.12C730.26 433.09 727.51 408.87 727.16 405.85C727.14 405.65 727.16 405.44 727.22 405.25C729.51 398.25 747.76 342.22 750.04 335.21C750.29 334.47 751.08 334.07 751.83 334.31C752.29 334.46 752.64 334.84 752.76 335.32C753.86 339.84 757.69 355.67 758.24 357.93C758.3 358.18 758.29 358.44 758.21 358.69Z"/><path id="b29R46BOg" d="M758.21 358.69C755.73 366.46 735.84 428.62 733.35 436.39C733.11 437.13 732.32 437.54 731.58 437.3C731.05 437.13 730.67 436.67 730.6 436.12C730.26 433.09 727.51 408.87 727.16 405.85C727.14 405.65 727.16 405.44 727.22 405.25C729.51 398.25 747.76 342.22 750.04 335.21C750.29 334.47 751.08 334.07 751.83 334.31C752.29 334.46 752.64 334.84 752.76 335.32C753.86 339.84 757.69 355.67 758.24 357.93C758.3 358.18 758.29 358.44 758.21 358.69Z"/><path id="c4RrArxbF" d="M733.88 427.47L728.81 405.54L750.74 337.23L750.74 337.23L755.8 356.62L733.88 427.47Z"/><path id="abeKrGvcB" d="M733.88 427.47L728.81 405.54L750.74 337.23L750.74 337.23L755.8 356.62L733.88 427.47Z"/><path id="n3W20nBdmA" d="M730.67 437.59C731.46 435.91 732.19 434.22 732.19 434.22C731.96 432.4 730.84 423.29 728.82 406.91C677.2 405.08 648.52 404.06 642.79 403.86C642.79 403.86 640.64 427 640.2 437.59C640.05 439.28 640.07 440.97 640.26 442.65C641.1 445.18 727.97 441.81 728.82 440.97C729.55 439.91 730.17 438.78 730.67 437.59Z"/><path id="g2pvBkRYfJ" d="M730.67 437.59C731.46 435.91 732.19 434.22 732.19 434.22C731.96 432.4 730.84 423.29 728.82 406.91C677.2 405.08 648.52 404.06 642.79 403.86C642.79 403.86 640.64 427 640.2 437.59C640.05 439.28 640.07 440.97 640.26 442.65C641.1 445.18 727.97 441.81 728.82 440.97C729.55 439.91 730.17 438.78 730.67 437.59Z"/><path id="b5403M7TVZ" d="M681.58 434.22L681.58 410.6L717.85 410.6L717.85 410.6L719.54 434.22L681.58 434.22Z"/><path id="bUrmvU2ik" d="M681.58 434.22L681.58 410.6L717.85 410.6L717.85 410.6L719.54 434.22L681.58 434.22Z"/><path id="b7S0U8H6Z" d="M668.09 428.32L647 428.32L647 418.19L668.93 418.19L668.93 418.19L669.16 418.15L668.09 428.32Z"/><path id="bHRbXwfcg" d="M668.09 428.32L647 428.32L647 418.19L668.93 418.19L668.93 418.19L669.16 418.15L668.09 428.32Z"/><path id="b1E7jGegA" d="M730.67 437.59C721.62 437.59 649.25 437.59 640.2 437.59C640.05 439.28 640.07 440.97 640.26 442.65C641.1 445.18 727.97 441.81 728.82 440.97C729.55 439.91 730.17 438.78 730.67 437.59Z"/><path id="aqRdIe5ll" d="M730.67 437.59C721.62 437.59 649.25 437.59 640.2 437.59C640.05 439.28 640.07 440.97 640.26 442.65C641.1 445.18 727.97 441.81 728.82 440.97C729.55 439.91 730.17 438.78 730.67 437.59Z"/><path id="b6JVar5WxV" d="M613.99 194.17C613.99 194.17 610.77 189.3 615.41 184.14C620.05 178.97 627.52 175.44 626.82 169.61C623.76 173.97 619.23 177.09 614.06 178.38C605.14 180.77 614 191.01 613.99 194.17Z"/><path id="e1xAZv4TSP" d="M613.99 194.17C613.99 194.17 610.77 189.3 615.41 184.14C620.05 178.97 627.52 175.44 626.82 169.61C623.76 173.97 619.23 177.09 614.06 178.38C605.14 180.77 614 191.01 613.99 194.17Z"/><path id="a7MYZlVf4" d="M601.13 197.39C601.13 203.61 606.18 208.66 612.41 208.66C618.63 208.66 623.68 203.61 623.68 197.39C623.68 191.16 618.63 186.12 612.41 186.12C606.18 186.12 601.13 191.16 601.13 197.39Z"/><path id="b3hf4MDQ5" d="M601.13 197.39C601.13 203.61 606.18 208.66 612.41 208.66C618.63 208.66 623.68 203.61 623.68 197.39C623.68 191.16 618.63 186.12 612.41 186.12C606.18 186.12 601.13 191.16 601.13 197.39Z"/><path id="h3o2qyO9b" d="M594.44 202.8C594.54 202.02 595.41 195.71 595.52 194.92C603.08 198.83 618.31 200.67 627.88 198.95C627.66 200.53 627.01 205.26 626.8 206.84C617.61 203.36 602.31 201.6 594.44 202.8Z"/><path id="eXQ7mdA5b" d="M594.44 202.8C594.54 202.02 595.41 195.71 595.52 194.92C603.08 198.83 618.31 200.67 627.88 198.95C627.66 200.53 627.01 205.26 626.8 206.84C617.61 203.36 602.31 201.6 594.44 202.8Z"/><path id="e1aOwNhuU" d="M570.5 283.4C570.5 283.4 560.84 268.76 574.77 253.27C588.71 237.77 611.12 227.18 609.02 209.66C601.36 214.92 597.5 228.81 570.72 235.99C570.68 245.47 570.54 273.92 570.5 283.4Z"/><path id="aGRsJLEtj" d="M570.5 283.4C570.5 283.4 560.84 268.76 574.77 253.27C588.71 237.77 611.12 227.18 609.02 209.66C601.36 214.92 597.5 228.81 570.72 235.99C570.68 245.47 570.54 273.92 570.5 283.4Z"/><path id="at38B9UgG" d="M625.37 287.59C625.37 287.59 639.22 263.22 627.38 246.87C615.54 230.53 608.06 217.6 609.93 208.49C614.57 214.25 620.99 234.81 633.14 237.29C631.59 247.35 644.36 281.36 625.37 287.59Z"/><path id="a1oelfE4KK" d="M625.37 287.59C625.37 287.59 639.22 263.22 627.38 246.87C615.54 230.53 608.06 217.6 609.93 208.49C614.57 214.25 620.99 234.81 633.14 237.29C631.59 247.35 644.36 281.36 625.37 287.59Z"/><path id="a1FCS8IFfP" d="M598.18 460.23C586.64 455.86 566.64 445.86 547.98 435.86C547.12 435.4 546.3 434.87 545.54 434.26C545.67 433.47 545.82 432.67 545.98 431.86C550.57 408.93 543.36 354.02 544.47 332.8C545.04 332.61 547.87 331.66 552.97 329.96C554.67 331.56 568.26 344.34 569.96 345.94C569.96 386.71 569.96 409.35 569.96 413.88C569.96 413.88 613.92 437.86 616.91 439.86C618.44 440.87 616.33 445.52 613.78 450.37C611.31 455.03 608.41 459.88 607.92 461.83C607.59 463.16 603.94 462.39 598.18 460.23Z"/><path id="a21WBSYgGf" d="M598.18 460.23C586.64 455.86 566.64 445.86 547.98 435.86C547.12 435.4 546.3 434.87 545.54 434.26C545.67 433.47 545.82 432.67 545.98 431.86C550.57 408.93 543.36 354.02 544.47 332.8C545.04 332.61 547.87 331.66 552.97 329.96C554.67 331.56 568.26 344.34 569.96 345.94C569.96 386.71 569.96 409.35 569.96 413.88C569.96 413.88 613.92 437.86 616.91 439.86C618.44 440.87 616.33 445.52 613.78 450.37C611.31 455.03 608.41 459.88 607.92 461.83C607.59 463.16 603.94 462.39 598.18 460.23Z"/><path id="byuRms2pr" d="M703.83 405.89C703.83 405.89 674.86 422.87 674.86 422.87C674.86 422.87 640.89 414.88 639.89 403.89C638.89 392.9 650.88 395.9 650.88 395.9C656.28 398.69 675.16 408.48 677.86 409.88C683.05 409.08 693.84 392.9 703.83 405.89Z"/><path id="f1cKQR8NYG" d="M703.83 405.89C703.83 405.89 674.86 422.87 674.86 422.87C674.86 422.87 640.89 414.88 639.89 403.89C638.89 392.9 650.88 395.9 650.88 395.9C656.28 398.69 675.16 408.48 677.86 409.88C683.05 409.08 693.84 392.9 703.83 405.89Z"/><path id="aPyETGf8z" d="M658.87 422.87C658.87 422.87 634.9 446.85 634.9 446.85C634.9 446.85 611.92 458.84 602.93 448.85C593.94 438.86 605.92 432.86 605.92 432.86C609.12 433.66 620.31 436.46 621.91 436.86C629.3 434.06 639.89 414.88 658.87 422.87Z"/><path id="bi8wsJHTR" d="M658.87 422.87C658.87 422.87 634.9 446.85 634.9 446.85C634.9 446.85 611.92 458.84 602.93 448.85C593.94 438.86 605.92 432.86 605.92 432.86C609.12 433.66 620.31 436.46 621.91 436.86C629.3 434.06 639.89 414.88 658.87 422.87Z"/><path id="bVqL7iaa" d="M652.88 309.98C652.88 309.98 655.88 347.94 651.88 355.93C647.88 363.93 644.89 363.93 647.88 367.92C650.88 371.92 654.88 368.92 650.88 375.92C646.89 382.91 642.89 381.91 645.89 384.91C648.88 387.9 647.88 388.9 647.88 388.9C649.08 389.9 658.67 397.89 659.87 398.89C659.87 398.89 652.52 410.61 643.21 409.75C633.9 408.88 625.91 363.93 625.91 363.93C628.9 351.34 637.89 313.57 640.89 300.99C641.89 301.98 650.48 308.18 652.88 309.98Z"/><path id="d1nOssLHYg" d="M652.88 309.98C652.88 309.98 655.88 347.94 651.88 355.93C647.88 363.93 644.89 363.93 647.88 367.92C650.88 371.92 654.88 368.92 650.88 375.92C646.89 382.91 642.89 381.91 645.89 384.91C648.88 387.9 647.88 388.9 647.88 388.9C649.08 389.9 658.67 397.89 659.87 398.89C659.87 398.89 652.52 410.61 643.21 409.75C633.9 408.88 625.91 363.93 625.91 363.93C628.9 351.34 637.89 313.57 640.89 300.99C641.89 301.98 650.48 308.18 652.88 309.98Z"/><path id="d1728Y48JN" d="M543.98 327.96C543.98 327.96 520 415.88 547.98 430.86C547.98 430.86 606.92 460.84 607.92 456.84C607.92 456.84 619.91 436.86 616.91 434.86C616.91 434.86 569.96 408.88 569.96 408.88C569.96 404.36 569.96 381.71 569.96 340.95C568.83 339.88 563.16 334.55 552.97 324.96C547.38 326.83 544.38 327.83 543.98 327.96Z"/><path id="e3UjaeIIO8" d="M543.98 327.96C543.98 327.96 520 415.88 547.98 430.86C547.98 430.86 606.92 460.84 607.92 456.84C607.92 456.84 619.91 436.86 616.91 434.86C616.91 434.86 569.96 408.88 569.96 408.88C569.96 404.36 569.96 381.71 569.96 340.95C568.83 339.88 563.16 334.55 552.97 324.96C547.38 326.83 544.38 327.83 543.98 327.96Z"/><path id="a22ZzOchYY" d="M617.41 434.36L568.46 409.38L566.46 361.43L566.46 361.43L564.46 409.38L617.41 434.36Z"/><path id="b5c73FW0h" d="M617.41 434.36L568.46 409.38L566.46 361.43L566.46 361.43L564.46 409.38L617.41 434.36Z"/><path id="cQVCYi3nk" d="M1028.94 497.46C1049.07 485.58 1057 461.71 1057 461.71C1057 461.71 1032.28 457.1 1012.14 468.97C992.01 480.84 989.69 497.56 984.08 504.71C993.05 503.26 1008.8 509.33 1028.94 497.46Z"/><path id="ak35tbWNr" d="M1028.94 497.46C1049.07 485.58 1057 461.71 1057 461.71C1057 461.71 1032.28 457.1 1012.14 468.97C992.01 480.84 989.69 497.56 984.08 504.71C993.05 503.26 1008.8 509.33 1028.94 497.46Z"/><path id="b380Gym1xi" d="M990.23 460.38C1001.51 439.9 1025.13 431.28 1025.13 431.28C1025.13 431.28 1030.47 455.86 1019.2 476.33C1007.92 496.81 991.28 499.61 984.3 505.43C985.49 496.42 978.96 480.86 990.23 460.38Z"/><path id="a1S7J7Qoj6" d="M990.23 460.38C1001.51 439.9 1025.13 431.28 1025.13 431.28C1025.13 431.28 1030.47 455.86 1019.2 476.33C1007.92 496.81 991.28 499.61 984.3 505.43C985.49 496.42 978.96 480.86 990.23 460.38Z"/><path id="f1OSgNhW9W" d="M17.98 235.55C17.98 237.75 19.77 239.54 21.97 239.54C24.18 239.54 25.97 237.75 25.97 235.55C25.97 233.34 24.18 231.55 21.97 231.55C19.77 231.55 17.98 233.34 17.98 235.55Z"/><path id="a1cqV73emI" d="M17.98 235.55C17.98 237.75 19.77 239.54 21.97 239.54C24.18 239.54 25.97 237.75 25.97 235.55C25.97 233.34 24.18 231.55 21.97 231.55C19.77 231.55 17.98 233.34 17.98 235.55Z"/><path id="e86y0sIZFH" d="M28.97 235.55C28.97 237.75 30.76 239.54 32.96 239.54C35.17 239.54 36.96 237.75 36.96 235.55C36.96 233.34 35.17 231.55 32.96 231.55C30.76 231.55 28.97 233.34 28.97 235.55Z"/><path id="c3TIEWSFn" d="M28.97 235.55C28.97 237.75 30.76 239.54 32.96 239.54C35.17 239.54 36.96 237.75 36.96 235.55C36.96 233.34 35.17 231.55 32.96 231.55C30.76 231.55 28.97 233.34 28.97 235.55Z"/><path id="j8lw68iMMy" d="M39.96 235.55C39.96 237.75 41.75 239.54 43.95 239.54C46.16 239.54 47.95 237.75 47.95 235.55C47.95 233.34 46.16 231.55 43.95 231.55C41.75 231.55 39.96 233.34 39.96 235.55Z"/><path id="areAp05sc" d="M39.96 235.55C39.96 237.75 41.75 239.54 43.95 239.54C46.16 239.54 47.95 237.75 47.95 235.55C47.95 233.34 46.16 231.55 43.95 231.55C41.75 231.55 39.96 233.34 39.96 235.55Z"/><path id="a1MTYPxrOr" d="M136.86 386.28C136.86 389.87 136.86 391.87 136.86 392.27C136.86 392.27 136.86 392.27 136.86 392.27C102.1 392.27 82.78 392.27 78.92 392.27C78.92 392.27 78.92 392.27 78.92 392.27C78.92 388.68 78.92 386.68 78.92 386.28C78.92 386.28 78.92 386.28 78.92 386.28C113.69 386.28 133 386.28 136.86 386.28C136.86 386.28 136.86 386.28 136.86 386.28Z"/><path id="b25dHkw2Om" d="M136.86 386.28C136.86 389.87 136.86 391.87 136.86 392.27C136.86 392.27 136.86 392.27 136.86 392.27C102.1 392.27 82.78 392.27 78.92 392.27C78.92 392.27 78.92 392.27 78.92 392.27C78.92 388.68 78.92 386.68 78.92 386.28C78.92 386.28 78.92 386.28 78.92 386.28C113.69 386.28 133 386.28 136.86 386.28C136.86 386.28 136.86 386.28 136.86 386.28Z"/><path id="caqM790WCH" d="M133.73 399.27C133.73 402.86 133.73 404.86 133.73 405.26C133.73 405.26 133.73 405.26 133.73 405.26C100.84 405.26 82.57 405.26 78.92 405.26C78.92 405.26 78.92 405.26 78.92 405.26C78.92 401.66 78.92 399.67 78.92 399.27C78.92 399.27 78.92 399.27 78.92 399.27C111.81 399.27 130.08 399.27 133.73 399.27C133.73 399.27 133.73 399.27 133.73 399.27Z"/><path id="b1vIrFz5BF" d="M133.73 399.27C133.73 402.86 133.73 404.86 133.73 405.26C133.73 405.26 133.73 405.26 133.73 405.26C100.84 405.26 82.57 405.26 78.92 405.26C78.92 405.26 78.92 405.26 78.92 405.26C78.92 401.66 78.92 399.67 78.92 399.27C78.92 399.27 78.92 399.27 78.92 399.27C111.81 399.27 130.08 399.27 133.73 399.27C133.73 399.27 133.73 399.27 133.73 399.27Z"/><path id="dtK0T0BMb" d="M118.85 412.25C118.85 415.85 118.85 417.85 118.85 418.25C118.85 418.25 118.85 418.25 118.85 418.25C94.89 418.25 81.58 418.25 78.92 418.25C78.92 418.25 78.92 418.25 78.92 418.25C78.92 414.65 78.92 412.65 78.92 412.25C78.92 412.25 78.92 412.25 78.92 412.25C102.88 412.25 116.19 412.25 118.85 412.25C118.85 412.25 118.85 412.25 118.85 412.25Z"/><path id="a179gK1rfb" d="M118.85 412.25C118.85 415.85 118.85 417.85 118.85 418.25C118.85 418.25 118.85 418.25 118.85 418.25C94.89 418.25 81.58 418.25 78.92 418.25C78.92 418.25 78.92 418.25 78.92 418.25C78.92 414.65 78.92 412.65 78.92 412.25C78.92 412.25 78.92 412.25 78.92 412.25C102.88 412.25 116.19 412.25 118.85 412.25C118.85 412.25 118.85 412.25 118.85 412.25Z"/><path id="a2x6UwDq3C" d="M271.74 386.28C271.74 389.87 271.74 391.87 271.74 392.27C271.74 392.27 271.74 392.27 271.74 392.27C236.97 392.27 217.66 392.27 213.79 392.27C213.79 392.27 213.79 392.27 213.79 392.27C213.79 388.68 213.79 386.68 213.79 386.28C213.79 386.28 213.79 386.28 213.79 386.28C248.56 386.28 267.88 386.28 271.74 386.28C271.74 386.28 271.74 386.28 271.74 386.28Z"/><path id="hrEs16Rvd" d="M271.74 386.28C271.74 389.87 271.74 391.87 271.74 392.27C271.74 392.27 271.74 392.27 271.74 392.27C236.97 392.27 217.66 392.27 213.79 392.27C213.79 392.27 213.79 392.27 213.79 392.27C213.79 388.68 213.79 386.68 213.79 386.28C213.79 386.28 213.79 386.28 213.79 386.28C248.56 386.28 267.88 386.28 271.74 386.28C271.74 386.28 271.74 386.28 271.74 386.28Z"/><path id="a4r4WoGzIG" d="M268.61 399.27C268.61 402.86 268.61 404.86 268.61 405.26C268.61 405.26 268.61 405.26 268.61 405.26C235.72 405.26 217.45 405.26 213.79 405.26C213.79 405.26 213.79 405.26 213.79 405.26C213.79 401.66 213.79 399.67 213.79 399.27C213.79 399.27 213.79 399.27 213.79 399.27C246.68 399.27 264.95 399.27 268.61 399.27C268.61 399.27 268.61 399.27 268.61 399.27Z"/><path id="dOlObSUt7" d="M268.61 399.27C268.61 402.86 268.61 404.86 268.61 405.26C268.61 405.26 268.61 405.26 268.61 405.26C235.72 405.26 217.45 405.26 213.79 405.26C213.79 405.26 213.79 405.26 213.79 405.26C213.79 401.66 213.79 399.67 213.79 399.27C213.79 399.27 213.79 399.27 213.79 399.27C246.68 399.27 264.95 399.27 268.61 399.27C268.61 399.27 268.61 399.27 268.61 399.27Z"/><path id="cD1khi8CD" d="M253.73 412.25C253.73 415.85 253.73 417.85 253.73 418.25C253.73 418.25 253.73 418.25 253.73 418.25C229.77 418.25 216.46 418.25 213.79 418.25C213.79 418.25 213.79 418.25 213.79 418.25C213.79 414.65 213.79 412.65 213.79 412.25C213.79 412.25 213.79 412.25 213.79 412.25C237.75 412.25 251.07 412.25 253.73 412.25C253.73 412.25 253.73 412.25 253.73 412.25Z"/><path id="e7Ptb9Q2" d="M253.73 412.25C253.73 415.85 253.73 417.85 253.73 418.25C253.73 418.25 253.73 418.25 253.73 418.25C229.77 418.25 216.46 418.25 213.79 418.25C213.79 418.25 213.79 418.25 213.79 418.25C213.79 414.65 213.79 412.65 213.79 412.25C213.79 412.25 213.79 412.25 213.79 412.25C237.75 412.25 251.07 412.25 253.73 412.25C253.73 412.25 253.73 412.25 253.73 412.25Z"/><path id="d1etkwfLrO" d="M271.74 386.28C271.74 389.87 271.74 391.87 271.74 392.27C271.74 392.27 271.74 392.27 271.74 392.27C236.97 392.27 217.66 392.27 213.79 392.27C213.79 392.27 213.79 392.27 213.79 392.27C213.79 388.68 213.79 386.68 213.79 386.28C213.79 386.28 213.79 386.28 213.79 386.28C248.56 386.28 267.88 386.28 271.74 386.28C271.74 386.28 271.74 386.28 271.74 386.28Z"/><path id="aeVQBzlK1" d="M271.74 386.28C271.74 389.87 271.74 391.87 271.74 392.27C271.74 392.27 271.74 392.27 271.74 392.27C236.97 392.27 217.66 392.27 213.79 392.27C213.79 392.27 213.79 392.27 213.79 392.27C213.79 388.68 213.79 386.68 213.79 386.28C213.79 386.28 213.79 386.28 213.79 386.28C248.56 386.28 267.88 386.28 271.74 386.28C271.74 386.28 271.74 386.28 271.74 386.28Z"/><path id="b13ZC2P8LA" d="M268.61 399.27C268.61 402.86 268.61 404.86 268.61 405.26C268.61 405.26 268.61 405.26 268.61 405.26C235.72 405.26 217.45 405.26 213.79 405.26C213.79 405.26 213.79 405.26 213.79 405.26C213.79 401.66 213.79 399.67 213.79 399.27C213.79 399.27 213.79 399.27 213.79 399.27C246.68 399.27 264.95 399.27 268.61 399.27C268.61 399.27 268.61 399.27 268.61 399.27Z"/><path id="bFonNGgwa" d="M268.61 399.27C268.61 402.86 268.61 404.86 268.61 405.26C268.61 405.26 268.61 405.26 268.61 405.26C235.72 405.26 217.45 405.26 213.79 405.26C213.79 405.26 213.79 405.26 213.79 405.26C213.79 401.66 213.79 399.67 213.79 399.27C213.79 399.27 213.79 399.27 213.79 399.27C246.68 399.27 264.95 399.27 268.61 399.27C268.61 399.27 268.61 399.27 268.61 399.27Z"/><path id="b15uxWbDFs" d="M253.73 412.25C253.73 415.85 253.73 417.85 253.73 418.25C253.73 418.25 253.73 418.25 253.73 418.25C229.77 418.25 216.46 418.25 213.79 418.25C213.79 418.25 213.79 418.25 213.79 418.25C213.79 414.65 213.79 412.65 213.79 412.25C213.79 412.25 213.79 412.25 213.79 412.25C237.75 412.25 251.07 412.25 253.73 412.25C253.73 412.25 253.73 412.25 253.73 412.25Z"/><path id="c6VFvbrYl" d="M253.73 412.25C253.73 415.85 253.73 417.85 253.73 418.25C253.73 418.25 253.73 418.25 253.73 418.25C229.77 418.25 216.46 418.25 213.79 418.25C213.79 418.25 213.79 418.25 213.79 418.25C213.79 414.65 213.79 412.65 213.79 412.25C213.79 412.25 213.79 412.25 213.79 412.25C237.75 412.25 251.07 412.25 253.73 412.25C253.73 412.25 253.73 412.25 253.73 412.25Z"/><path id="asyW8C2B" d="M411.61 386.28C411.61 389.87 411.61 391.87 411.61 392.27C411.61 392.27 411.61 392.27 411.61 392.27C376.84 392.27 357.52 392.27 353.66 392.27C353.66 392.27 353.66 392.27 353.66 392.27C353.66 388.68 353.66 386.68 353.66 386.28C353.66 386.28 353.66 386.28 353.66 386.28C388.43 386.28 407.74 386.28 411.61 386.28C411.61 386.28 411.61 386.28 411.61 386.28Z"/><path id="a1s3jF56x3" d="M411.61 386.28C411.61 389.87 411.61 391.87 411.61 392.27C411.61 392.27 411.61 392.27 411.61 392.27C376.84 392.27 357.52 392.27 353.66 392.27C353.66 392.27 353.66 392.27 353.66 392.27C353.66 388.68 353.66 386.68 353.66 386.28C353.66 386.28 353.66 386.28 353.66 386.28C388.43 386.28 407.74 386.28 411.61 386.28C411.61 386.28 411.61 386.28 411.61 386.28Z"/><path id="b1eH2LQpOx" d="M408.47 399.27C408.47 402.86 408.47 404.86 408.47 405.26C408.47 405.26 408.47 405.26 408.47 405.26C375.59 405.26 357.32 405.26 353.66 405.26C353.66 405.26 353.66 405.26 353.66 405.26C353.66 401.66 353.66 399.67 353.66 399.27C353.66 399.27 353.66 399.27 353.66 399.27C386.55 399.27 404.82 399.27 408.47 399.27C408.47 399.27 408.47 399.27 408.47 399.27Z"/><path id="j2YC5YaYmv" d="M408.47 399.27C408.47 402.86 408.47 404.86 408.47 405.26C408.47 405.26 408.47 405.26 408.47 405.26C375.59 405.26 357.32 405.26 353.66 405.26C353.66 405.26 353.66 405.26 353.66 405.26C353.66 401.66 353.66 399.67 353.66 399.27C353.66 399.27 353.66 399.27 353.66 399.27C386.55 399.27 404.82 399.27 408.47 399.27C408.47 399.27 408.47 399.27 408.47 399.27Z"/><path id="a3PswhWjQu" d="M393.6 412.25C393.6 415.85 393.6 417.85 393.6 418.25C393.6 418.25 393.6 418.25 393.6 418.25C369.64 418.25 356.32 418.25 353.66 418.25C353.66 418.25 353.66 418.25 353.66 418.25C353.66 414.65 353.66 412.65 353.66 412.25C353.66 412.25 353.66 412.25 353.66 412.25C377.62 412.25 390.93 412.25 393.6 412.25C393.6 412.25 393.6 412.25 393.6 412.25Z"/><path id="a53b59MjV" d="M393.6 412.25C393.6 415.85 393.6 417.85 393.6 418.25C393.6 418.25 393.6 418.25 393.6 418.25C369.64 418.25 356.32 418.25 353.66 418.25C353.66 418.25 353.66 418.25 353.66 418.25C353.66 414.65 353.66 412.65 353.66 412.25C353.66 412.25 353.66 412.25 353.66 412.25C377.62 412.25 390.93 412.25 393.6 412.25C393.6 412.25 393.6 412.25 393.6 412.25Z"/><path id="b7L5z7J7A" d="M144.86 308.35C144.86 347.91 144.86 369.89 144.86 374.29C144.86 374.29 144.86 374.29 144.86 374.29C100.5 374.29 75.86 374.29 70.93 374.29C70.93 374.29 70.93 374.29 70.93 374.29C70.93 334.73 70.93 312.75 70.93 308.35C70.93 308.35 70.93 308.35 70.93 308.35C115.29 308.35 139.93 308.35 144.86 308.35C144.86 308.35 144.86 308.35 144.86 308.35Z"/><path id="b37PfId5wK" d="M144.86 308.35C144.86 347.91 144.86 369.89 144.86 374.29C144.86 374.29 144.86 374.29 144.86 374.29C100.5 374.29 75.86 374.29 70.93 374.29C70.93 374.29 70.93 374.29 70.93 374.29C70.93 334.73 70.93 312.75 70.93 308.35C70.93 308.35 70.93 308.35 70.93 308.35C115.29 308.35 139.93 308.35 144.86 308.35C144.86 308.35 144.86 308.35 144.86 308.35Z"/><path id="d15lzcKkBE" d="M279.73 308.35C279.73 347.91 279.73 369.89 279.73 374.29C279.73 374.29 279.73 374.29 279.73 374.29C235.37 374.29 210.73 374.29 205.8 374.29C205.8 374.29 205.8 374.29 205.8 374.29C205.8 334.73 205.8 312.75 205.8 308.35C205.8 308.35 205.8 308.35 205.8 308.35C250.16 308.35 274.8 308.35 279.73 308.35C279.73 308.35 279.73 308.35 279.73 308.35Z"/><path id="b16K0mBdV7" d="M279.73 308.35C279.73 347.91 279.73 369.89 279.73 374.29C279.73 374.29 279.73 374.29 279.73 374.29C235.37 374.29 210.73 374.29 205.8 374.29C205.8 374.29 205.8 374.29 205.8 374.29C205.8 334.73 205.8 312.75 205.8 308.35C205.8 308.35 205.8 308.35 205.8 308.35C250.16 308.35 274.8 308.35 279.73 308.35C279.73 308.35 279.73 308.35 279.73 308.35Z"/><path id="b1fLJkJUMz" d="M419.6 308.35C419.6 347.91 419.6 369.89 419.6 374.29C419.6 374.29 419.6 374.29 419.6 374.29C375.24 374.29 350.6 374.29 345.67 374.29C345.67 374.29 345.67 374.29 345.67 374.29C345.67 334.73 345.67 312.75 345.67 308.35C345.67 308.35 345.67 308.35 345.67 308.35C390.03 308.35 414.67 308.35 419.6 308.35C419.6 308.35 419.6 308.35 419.6 308.35Z"/><path id="fmwJ9aUvk" d="M419.6 308.35C419.6 347.91 419.6 369.89 419.6 374.29C419.6 374.29 419.6 374.29 419.6 374.29C375.24 374.29 350.6 374.29 345.67 374.29C345.67 374.29 345.67 374.29 345.67 374.29C345.67 334.73 345.67 312.75 345.67 308.35C345.67 308.35 345.67 308.35 345.67 308.35C390.03 308.35 414.67 308.35 419.6 308.35C419.6 308.35 419.6 308.35 419.6 308.35Z"/><path id="c43V2epnux" d="M242.81 340.42C242.87 340.5 243.31 341.14 243.37 341.22C233.75 347.97 233.14 373.75 233.13 374.01C232.94 374.01 232.26 374 232.16 373.99C232.18 372.91 232.79 347.46 242.81 340.42Z"/><path id="en0ZwtdBB" d="M242.81 340.42C242.87 340.5 243.31 341.14 243.37 341.22C233.75 347.97 233.14 373.75 233.13 374.01C232.94 374.01 232.26 374 232.16 373.99C232.18 372.91 232.79 347.46 242.81 340.42Z"/><path id="b7NBDSLv8" d="M243.09 335.22C243.09 337.92 245.27 340.1 247.97 340.1C250.66 340.1 252.84 337.92 252.84 335.22C252.84 332.53 250.66 330.35 247.97 330.35C245.27 330.35 243.09 332.53 243.09 335.22Z"/><path id="b3gDx4s8Xq" d="M243.09 335.22C243.09 337.92 245.27 340.1 247.97 340.1C250.66 340.1 252.84 337.92 252.84 335.22C252.84 332.53 250.66 330.35 247.97 330.35C245.27 330.35 243.09 332.53 243.09 335.22Z"/><path id="b8hT2gaXe" d="M253.37 347.9C251.68 349.95 249.47 351.51 246.98 352.44C244.44 353.24 241.74 353.36 239.15 352.78C242.51 348.49 248.08 346.58 253.37 347.9Z"/><path id="d5tSNbzjnw" d="M253.37 347.9C251.68 349.95 249.47 351.51 246.98 352.44C244.44 353.24 241.74 353.36 239.15 352.78C242.51 348.49 248.08 346.58 253.37 347.9Z"/><path id="af4tTFa2" d="M382.68 340.42C382.73 340.5 383.18 341.14 383.24 341.22C373.62 347.97 373.01 373.75 373 374.01C372.81 374.01 372.12 374 372.03 373.99C372.05 372.91 372.66 347.46 382.68 340.42Z"/><path id="aN62DPZkE" d="M382.68 340.42C382.73 340.5 383.18 341.14 383.24 341.22C373.62 347.97 373.01 373.75 373 374.01C372.81 374.01 372.12 374 372.03 373.99C372.05 372.91 372.66 347.46 382.68 340.42Z"/><path id="citQ8LvsL" d="M382.96 335.22C382.96 337.92 385.14 340.1 387.84 340.1C390.53 340.1 392.71 337.92 392.71 335.22C392.71 332.53 390.53 330.35 387.84 330.35C385.14 330.35 382.96 332.53 382.96 335.22Z"/><path id="b2QcSA14A" d="M382.96 335.22C382.96 337.92 385.14 340.1 387.84 340.1C390.53 340.1 392.71 337.92 392.71 335.22C392.71 332.53 390.53 330.35 387.84 330.35C385.14 330.35 382.96 332.53 382.96 335.22Z"/><path id="auixOXgzV" d="M393.24 347.9C391.55 349.95 389.34 351.51 386.85 352.44C384.31 353.24 381.61 353.36 379.02 352.78C382.38 348.49 387.95 346.58 393.24 347.9Z"/><path id="h1RFKWd0yK" d="M393.24 347.9C391.55 349.95 389.34 351.51 386.85 352.44C384.31 353.24 381.61 353.36 379.02 352.78C382.38 348.49 387.95 346.58 393.24 347.9Z"/><path id="bo3MCiIl1" d="M5.99 501.3L5.99 224.56L484.54 224.56L484.54 501.3L5.99 501.3ZM482.54 499.3L482.54 226.56L7.99 226.56L7.99 499.3L482.54 499.3Z"/><path id="a3vNM7jOYN" d="M5.99 501.3L5.99 224.56L484.54 224.56L484.54 501.3L5.99 501.3ZM482.54 499.3L482.54 226.56L7.99 226.56L7.99 499.3L482.54 499.3Z"/><path id="b5BxlCpEDy" d="M483.54 244.6C483.54 245.8 483.54 246.47 483.54 246.6C483.54 246.6 483.54 246.6 483.54 246.6C197.61 246.6 38.76 246.6 6.99 246.6C6.99 246.6 6.99 246.6 6.99 246.6C6.99 245.4 6.99 244.74 6.99 244.6C6.99 244.6 6.99 244.6 6.99 244.6C292.92 244.6 451.77 244.6 483.54 244.6C483.54 244.6 483.54 244.6 483.54 244.6Z"/><path id="a7saaMx1d" d="M483.54 244.6C483.54 245.8 483.54 246.47 483.54 246.6C483.54 246.6 483.54 246.6 483.54 246.6C197.61 246.6 38.76 246.6 6.99 246.6C6.99 246.6 6.99 246.6 6.99 246.6C6.99 245.4 6.99 244.74 6.99 244.6C6.99 244.6 6.99 244.6 6.99 244.6C292.92 244.6 451.77 244.6 483.54 244.6C483.54 244.6 483.54 244.6 483.54 244.6Z"/></defs><g><g><g><use fill="#eaeaea" fill-opacity="1" opacity="1" xlink:href="#aaquY3BeF"/><g><use fill-opacity="0" stroke="#000" stroke-opacity="0" stroke-width="1" opacity="1" xlink:href="#aaquY3BeF"/></g></g><g><use fill="#000" fill-opacity="0" opacity="1" xlink:href="#bbYlUUUf4"/><g><use fill-opacity="0" stroke="#000" stroke-opacity="0" stroke-width="1" opacity="1" xlink:href="#bbYlUUUf4"/></g></g><g><use fill="#eaeaea" fill-opacity="1" opacity="1" xlink:href="#d10oJpFyjK"/><g><use fill-opacity="0" stroke="#000" stroke-opacity="0" stroke-width="1" opacity="1" xlink:href="#d10oJpFyjK"/></g></g><g><use fill="#3f3d56" fill-opacity="1" opacity="1" xlink:href="#b8usP3Ivz"/><g><use fill-opacity="0" stroke="#000" stroke-opacity="0" stroke-width="1" opacity="1" xlink:href="#b8usP3Ivz"/></g></g><g><use fill="#000" fill-opacity="0" opacity="1" xlink:href="#a2fQpxDZ6"/><g><use fill-opacity="0" stroke="#000" stroke-opacity="0" stroke-width="1" opacity="1" xlink:href="#a2fQpxDZ6"/></g></g><g><use fill="#000" fill-opacity="1" opacity="1" xlink:href="#e1R9HQZ5sJ"/><g><use fill-opacity="0" stroke="#000" stroke-opacity="0" stroke-width="1" opacity="1" xlink:href="#e1R9HQZ5sJ"/></g></g><g><use fill="#000" fill-opacity="0" opacity="1" xlink:href="#fAJyDIAG"/><g><use fill-opacity="0" stroke="#000" stroke-opacity="0" stroke-width="1" opacity="1" xlink:href="#fAJyDIAG"/></g></g><g><use fill="#3f3d56" fill-opacity="1" opacity="1" xlink:href="#e66dmEIVps"/><g><use fill-opacity="0" stroke="#000" stroke-opacity="0" stroke-width="1" opacity="1" xlink:href="#e66dmEIVps"/></g></g><g><use fill="#000" fill-opacity="0" opacity="1" xlink:href="#bx7WkfI4d"/><g><use fill-opacity="0" stroke="#000" stroke-opacity="0" stroke-width="1" opacity="1" xlink:href="#bx7WkfI4d"/></g></g><g><use fill="#ffb8b8" fill-opacity="1" opacity="1" xlink:href="#a3dZ722w8"/><g><use fill-opacity="0" stroke="#000" stroke-opacity="0" stroke-width="1" opacity="1" xlink:href="#a3dZ722w8"/></g></g><g><use fill="#000" fill-opacity="0" opacity="1" xlink:href="#b3cwJpUPv"/><g><use fill-opacity="0" stroke="#000" stroke-opacity="0" stroke-width="1" opacity="1" xlink:href="#b3cwJpUPv"/></g></g><g><use fill="#000" fill-opacity="1" opacity="1" xlink:href="#c16Y3B5WUJ"/><g><use fill-opacity="0" stroke="#000" stroke-opacity="0" stroke-width="1" opacity="1" xlink:href="#c16Y3B5WUJ"/></g></g><g><use fill="#000" fill-opacity="0" opacity="1" xlink:href="#cEZpoOsyB"/><g><use fill-opacity="0" stroke="#000" stroke-opacity="0" stroke-width="1" opacity="1" xlink:href="#cEZpoOsyB"/></g></g><g><use fill="#00c6b3" fill-opacity="1" opacity="1" xlink:href="#b3qlxQQWUf"/><g><use fill-opacity="0" stroke="#000" stroke-opacity="0" stroke-width="1" opacity="1" xlink:href="#b3qlxQQWUf"/></g></g><g><use fill="#000" fill-opacity="0" opacity="1" xlink:href="#c1eBXgg96D"/><g><use fill-opacity="0" stroke="#000" stroke-opacity="0" stroke-width="1" opacity="1" xlink:href="#c1eBXgg96D"/></g></g><g><use fill="#ffb8b8" fill-opacity="1" opacity="1" xlink:href="#b2ANtd6ab0"/><g><use fill-opacity="0" stroke="#000" stroke-opacity="0" stroke-width="1" opacity="1" xlink:href="#b2ANtd6ab0"/></g></g><g><use fill="#000" fill-opacity="0" opacity="1" xlink:href="#b1nSaIK6NL"/><g><use fill-opacity="0" stroke="#000" stroke-opacity="0" stroke-width="1" opacity="1" xlink:href="#b1nSaIK6NL"/></g></g><g><use fill="#ffb8b8" fill-opacity="1" opacity="1" xlink:href="#b58BfbDAUN"/><g><use fill-opacity="0" stroke="#000" stroke-opacity="0" stroke-width="1" opacity="1" xlink:href="#b58BfbDAUN"/></g></g><g><use fill="#000" fill-opacity="0" opacity="1" xlink:href="#avmaETTWK"/><g><use fill-opacity="0" stroke="#000" stroke-opacity="0" stroke-width="1" opacity="1" xlink:href="#avmaETTWK"/></g></g><g><use fill="#2f2e41" fill-opacity="1" opacity="1" xlink:href="#c1SFKLVv2o"/><g><use fill-opacity="0" stroke="#000" stroke-opacity="0" stroke-width="1" opacity="1" xlink:href="#c1SFKLVv2o"/></g></g><g><use fill="#000" fill-opacity="0" opacity="1" xlink:href="#ahBMjV5F2"/><g><use fill-opacity="0" stroke="#000" stroke-opacity="0" stroke-width="1" opacity="1" xlink:href="#ahBMjV5F2"/></g></g><g><use fill="#2f2e41" fill-opacity="1" opacity="1" xlink:href="#amJzDZr1T"/><g><use fill-opacity="0" stroke="#000" stroke-opacity="0" stroke-width="1" opacity="1" xlink:href="#amJzDZr1T"/></g></g><g><use fill="#000" fill-opacity="0" opacity="1" xlink:href="#c1nquk6SMT"/><g><use fill-opacity="0" stroke="#000" stroke-opacity="0" stroke-width="1" opacity="1" xlink:href="#c1nquk6SMT"/></g></g><g><use fill="#ffb8b8" fill-opacity="1" opacity="1" xlink:href="#aa7qIpBjk"/><g><use fill-opacity="0" stroke="#000" stroke-opacity="0" stroke-width="1" opacity="1" xlink:href="#aa7qIpBjk"/></g></g><g><use fill="#000" fill-opacity="0" opacity="1" xlink:href="#e8JEfSLRV"/><g><use fill-opacity="0" stroke="#000" stroke-opacity="0" stroke-width="1" opacity="1" xlink:href="#e8JEfSLRV"/></g></g><g><use fill="#3f3d56" fill-opacity="1" opacity="1" xlink:href="#a2OpCfMIHg"/><g><use fill-opacity="0" stroke="#000" stroke-opacity="0" stroke-width="1" opacity="1" xlink:href="#a2OpCfMIHg"/></g></g><g><use fill="#000" fill-opacity="0" opacity="1" xlink:href="#a13PtRnSBd"/><g><use fill-opacity="0" stroke="#000" stroke-opacity="0" stroke-width="1" opacity="1" xlink:href="#a13PtRnSBd"/></g></g><g><use fill="#2f2e41" fill-opacity="1" opacity="1" xlink:href="#a1kF0E7okQ"/><g><use fill-opacity="0" stroke="#000" stroke-opacity="0" stroke-width="1" opacity="1" xlink:href="#a1kF0E7okQ"/></g></g><g><use fill="#000" fill-opacity="0" opacity="1" xlink:href="#a5NqGcEv5C"/><g><use fill-opacity="0" stroke="#000" stroke-opacity="0" stroke-width="1" opacity="1" xlink:href="#a5NqGcEv5C"/></g></g><g><use fill="#2f2e41" fill-opacity="1" opacity="1" xlink:href="#d1bVWkzyoF"/><g><use fill-opacity="0" stroke="#000" stroke-opacity="0" stroke-width="1" opacity="1" xlink:href="#d1bVWkzyoF"/></g></g><g><use fill="#000" fill-opacity="0" opacity="1" xlink:href="#fQkwBl4sP"/><g><use fill-opacity="0" stroke="#000" stroke-opacity="0" stroke-width="1" opacity="1" xlink:href="#fQkwBl4sP"/></g></g><g><use fill="#d0cde1" fill-opacity="1" opacity="1" xlink:href="#d1dKkWnb8e"/><g><use fill-opacity="0" stroke="#000" stroke-opacity="0" stroke-width="1" opacity="1" xlink:href="#d1dKkWnb8e"/></g></g><g><use fill="#000" fill-opacity="0" opacity="1" xlink:href="#b29R46BOg"/><g><use fill-opacity="0" stroke="#000" stroke-opacity="0" stroke-width="1" opacity="1" xlink:href="#b29R46BOg"/></g></g><g><use fill="#f2f2f2" fill-opacity="1" opacity="1" xlink:href="#c4RrArxbF"/><g><use fill-opacity="0" stroke="#000" stroke-opacity="0" stroke-width="1" opacity="1" xlink:href="#c4RrArxbF"/></g></g><g><use fill="#000" fill-opacity="0" opacity="1" xlink:href="#abeKrGvcB"/><g><use fill-opacity="0" stroke="#000" stroke-opacity="0" stroke-width="1" opacity="1" xlink:href="#abeKrGvcB"/></g></g><g><use fill="#d0cde1" fill-opacity="1" opacity="1" xlink:href="#n3W20nBdmA"/><g><use fill-opacity="0" stroke="#000" stroke-opacity="0" stroke-width="1" opacity="1" xlink:href="#n3W20nBdmA"/></g></g><g><use fill="#000" fill-opacity="0" opacity="1" xlink:href="#g2pvBkRYfJ"/><g><use fill-opacity="0" stroke="#000" stroke-opacity="0" stroke-width="1" opacity="1" xlink:href="#g2pvBkRYfJ"/></g></g><g><use fill="#000" fill-opacity="1" opacity="1" xlink:href="#b5403M7TVZ"/><g><use fill-opacity="0" stroke="#000" stroke-opacity="0" stroke-width="1" opacity="1" xlink:href="#b5403M7TVZ"/></g></g><g><use fill="#000" fill-opacity="0" opacity="1" xlink:href="#bUrmvU2ik"/><g><use fill-opacity="0" stroke="#000" stroke-opacity="0" stroke-width="1" opacity="1" xlink:href="#bUrmvU2ik"/></g></g><g><use fill="#000" fill-opacity="1" opacity="1" xlink:href="#b7S0U8H6Z"/><g><use fill-opacity="0" stroke="#000" stroke-opacity="0" stroke-width="1" opacity="1" xlink:href="#b7S0U8H6Z"/></g></g><g><use fill="#000" fill-opacity="0" opacity="1" xlink:href="#bHRbXwfcg"/><g><use fill-opacity="0" stroke="#000" stroke-opacity="0" stroke-width="1" opacity="1" xlink:href="#bHRbXwfcg"/></g></g><g><use fill="#000" fill-opacity="1" opacity="1" xlink:href="#b1E7jGegA"/><g><use fill-opacity="0" stroke="#000" stroke-opacity="0" stroke-width="1" opacity="1" xlink:href="#b1E7jGegA"/></g></g><g><use fill="#000" fill-opacity="0" opacity="1" xlink:href="#aqRdIe5ll"/><g><use fill-opacity="0" stroke="#000" stroke-opacity="0" stroke-width="1" opacity="1" xlink:href="#aqRdIe5ll"/></g></g><g><use fill="#00c6b3" fill-opacity="1" opacity="1" xlink:href="#b6JVar5WxV"/><g><use fill-opacity="0" stroke="#000" stroke-opacity="0" stroke-width="1" opacity="1" xlink:href="#b6JVar5WxV"/></g></g><g><use fill="#000" fill-opacity="0" opacity="1" xlink:href="#e1xAZv4TSP"/><g><use fill-opacity="0" stroke="#000" stroke-opacity="0" stroke-width="1" opacity="1" xlink:href="#e1xAZv4TSP"/></g></g><g><use fill="#00c6b3" fill-opacity="1" opacity="1" xlink:href="#a7MYZlVf4"/><g><use fill-opacity="0" stroke="#000" stroke-opacity="0" stroke-width="1" opacity="1" xlink:href="#a7MYZlVf4"/></g></g><g><use fill="#000" fill-opacity="0" opacity="1" xlink:href="#b3hf4MDQ5"/><g><use fill-opacity="0" stroke="#000" stroke-opacity="0" stroke-width="1" opacity="1" xlink:href="#b3hf4MDQ5"/></g></g><g><use fill="#3f3d56" fill-opacity="1" opacity="1" xlink:href="#h3o2qyO9b"/><g><use fill-opacity="0" stroke="#000" stroke-opacity="0" stroke-width="1" opacity="1" xlink:href="#h3o2qyO9b"/></g></g><g><use fill="#000" fill-opacity="0" opacity="1" xlink:href="#eXQ7mdA5b"/><g><use fill-opacity="0" stroke="#000" stroke-opacity="0" stroke-width="1" opacity="1" xlink:href="#eXQ7mdA5b"/></g></g><g><use fill="#00e3cd" fill-opacity="1" opacity="1" xlink:href="#e1aOwNhuU"/><g><use fill-opacity="0" stroke="#000" stroke-opacity="0" stroke-width="1" opacity="1" xlink:href="#e1aOwNhuU"/></g></g><g><use fill="#000" fill-opacity="0" opacity="1" xlink:href="#aGRsJLEtj"/><g><use fill-opacity="0" stroke="#000" stroke-opacity="0" stroke-width="1" opacity="1" xlink:href="#aGRsJLEtj"/></g></g><g><use fill="#00e3cd" fill-opacity="1" opacity="1" xlink:href="#at38B9UgG"/><g><use fill-opacity="0" stroke="#000" stroke-opacity="0" stroke-width="1" opacity="1" xlink:href="#at38B9UgG"/></g></g><g><use fill="#000" fill-opacity="0" opacity="1" xlink:href="#a1oelfE4KK"/><g><use fill-opacity="0" stroke="#000" stroke-opacity="0" stroke-width="1" opacity="1" xlink:href="#a1oelfE4KK"/></g></g><g><use fill="#000" fill-opacity="1" opacity="1" xlink:href="#a1FCS8IFfP"/><g><use fill-opacity="0" stroke="#000" stroke-opacity="0" stroke-width="1" opacity="1" xlink:href="#a1FCS8IFfP"/></g></g><g><use fill="#000" fill-opacity="0" opacity="1" xlink:href="#a21WBSYgGf"/><g><use fill-opacity="0" stroke="#000" stroke-opacity="0" stroke-width="1" opacity="1" xlink:href="#a21WBSYgGf"/></g></g><g><use fill="#ffb8b8" fill-opacity="1" opacity="1" xlink:href="#byuRms2pr"/><g><use fill-opacity="0" stroke="#000" stroke-opacity="0" stroke-width="1" opacity="1" xlink:href="#byuRms2pr"/></g></g><g><use fill="#000" fill-opacity="0" opacity="1" xlink:href="#f1cKQR8NYG"/><g><use fill-opacity="0" stroke="#000" stroke-opacity="0" stroke-width="1" opacity="1" xlink:href="#f1cKQR8NYG"/></g></g><g><use fill="#ffb8b8" fill-opacity="1" opacity="1" xlink:href="#aPyETGf8z"/><g><use fill-opacity="0" stroke="#000" stroke-opacity="0" stroke-width="1" opacity="1" xlink:href="#aPyETGf8z"/></g></g><g><use fill="#000" fill-opacity="0" opacity="1" xlink:href="#bi8wsJHTR"/><g><use fill-opacity="0" stroke="#000" stroke-opacity="0" stroke-width="1" opacity="1" xlink:href="#bi8wsJHTR"/></g></g><g><use fill="#3f3d56" fill-opacity="1" opacity="1" xlink:href="#bVqL7iaa"/><g><use fill-opacity="0" stroke="#000" stroke-opacity="0" stroke-width="1" opacity="1" xlink:href="#bVqL7iaa"/></g></g><g><use fill="#000" fill-opacity="0" opacity="1" xlink:href="#d1nOssLHYg"/><g><use fill-opacity="0" stroke="#000" stroke-opacity="0" stroke-width="1" opacity="1" xlink:href="#d1nOssLHYg"/></g></g><g><use fill="#3f3d56" fill-opacity="1" opacity="1" xlink:href="#d1728Y48JN"/><g><use fill-opacity="0" stroke="#000" stroke-opacity="0" stroke-width="1" opacity="1" xlink:href="#d1728Y48JN"/></g></g><g><use fill="#000" fill-opacity="0" opacity="1" xlink:href="#e3UjaeIIO8"/><g><use fill-opacity="0" stroke="#000" stroke-opacity="0" stroke-width="1" opacity="1" xlink:href="#e3UjaeIIO8"/></g></g><g><use fill="#000" fill-opacity="1" opacity="1" xlink:href="#a22ZzOchYY"/><g><use fill-opacity="0" stroke="#000" stroke-opacity="0" stroke-width="1" opacity="1" xlink:href="#a22ZzOchYY"/></g></g><g><use fill="#000" fill-opacity="0" opacity="1" xlink:href="#b5c73FW0h"/><g><use fill-opacity="0" stroke="#000" stroke-opacity="0" stroke-width="1" opacity="1" xlink:href="#b5c73FW0h"/></g></g><g><use fill="#3f3d56" fill-opacity="1" opacity="1" xlink:href="#cQVCYi3nk"/><g><use fill-opacity="0" stroke="#000" stroke-opacity="0" stroke-width="1" opacity="1" xlink:href="#cQVCYi3nk"/></g></g><g><use fill="#000" fill-opacity="0" opacity="1" xlink:href="#ak35tbWNr"/><g><use fill-opacity="0" stroke="#000" stroke-opacity="0" stroke-width="1" opacity="1" xlink:href="#ak35tbWNr"/></g></g><g><use fill="#6c63ff" fill-opacity="1" opacity="1" xlink:href="#b380Gym1xi"/><g><use fill-opacity="0" stroke="#000" stroke-opacity="0" stroke-width="1" opacity="1" xlink:href="#b380Gym1xi"/></g></g><g><use fill="#000" fill-opacity="0" opacity="1" xlink:href="#a1S7J7Qoj6"/><g><use fill-opacity="0" stroke="#000" stroke-opacity="0" stroke-width="1" opacity="1" xlink:href="#a1S7J7Qoj6"/></g></g><g><use fill="#6c63ff" fill-opacity="1" opacity="1" xlink:href="#f1OSgNhW9W"/><g><use fill-opacity="0" stroke="#000" stroke-opacity="0" stroke-width="1" opacity="1" xlink:href="#f1OSgNhW9W"/></g></g><g><use fill="#000" fill-opacity="0" opacity="1" xlink:href="#a1cqV73emI"/><g><use fill-opacity="0" stroke="#000" stroke-opacity="0" stroke-width="1" opacity="1" xlink:href="#a1cqV73emI"/></g></g><g><use fill="#6c63ff" fill-opacity="1" opacity="1" xlink:href="#e86y0sIZFH"/><g><use fill-opacity="0" stroke="#000" stroke-opacity="0" stroke-width="1" opacity="1" xlink:href="#e86y0sIZFH"/></g></g><g><use fill="#000" fill-opacity="0" opacity="1" xlink:href="#c3TIEWSFn"/><g><use fill-opacity="0" stroke="#000" stroke-opacity="0" stroke-width="1" opacity="1" xlink:href="#c3TIEWSFn"/></g></g><g><use fill="#6c63ff" fill-opacity="1" opacity="1" xlink:href="#j8lw68iMMy"/><g><use fill-opacity="0" stroke="#000" stroke-opacity="0" stroke-width="1" opacity="1" xlink:href="#j8lw68iMMy"/></g></g><g><use fill="#000" fill-opacity="0" opacity="1" xlink:href="#areAp05sc"/><g><use fill-opacity="0" stroke="#000" stroke-opacity="0" stroke-width="1" opacity="1" xlink:href="#areAp05sc"/></g></g><g><use fill="#6c63ff" fill-opacity="1" opacity="1" xlink:href="#a1MTYPxrOr"/><g><use fill-opacity="0" stroke="#000" stroke-opacity="0" stroke-width="1" opacity="1" xlink:href="#a1MTYPxrOr"/></g></g><g><use fill="#000" fill-opacity="0" opacity="1" xlink:href="#b25dHkw2Om"/><g><use fill-opacity="0" stroke="#000" stroke-opacity="0" stroke-width="1" opacity="1" xlink:href="#b25dHkw2Om"/></g></g><g><use fill="#6c63ff" fill-opacity="1" opacity="1" xlink:href="#caqM790WCH"/><g><use fill-opacity="0" stroke="#000" stroke-opacity="0" stroke-width="1" opacity="1" xlink:href="#caqM790WCH"/></g></g><g><use fill="#000" fill-opacity="0" opacity="1" xlink:href="#b1vIrFz5BF"/><g><use fill-opacity="0" stroke="#000" stroke-opacity="0" stroke-width="1" opacity="1" xlink:href="#b1vIrFz5BF"/></g></g><g><use fill="#6c63ff" fill-opacity="1" opacity="1" xlink:href="#dtK0T0BMb"/><g><use fill-opacity="0" stroke="#000" stroke-opacity="0" stroke-width="1" opacity="1" xlink:href="#dtK0T0BMb"/></g></g><g><use fill="#000" fill-opacity="0" opacity="1" xlink:href="#a179gK1rfb"/><g><use fill-opacity="0" stroke="#000" stroke-opacity="0" stroke-width="1" opacity="1" xlink:href="#a179gK1rfb"/></g></g><g><use fill="#6c63ff" fill-opacity="1" opacity="1" xlink:href="#a2x6UwDq3C"/><g><use fill-opacity="0" stroke="#000" stroke-opacity="0" stroke-width="1" opacity="1" xlink:href="#a2x6UwDq3C"/></g></g><g><use fill="#000" fill-opacity="0" opacity="1" xlink:href="#hrEs16Rvd"/><g><use fill-opacity="0" stroke="#000" stroke-opacity="0" stroke-width="1" opacity="1" xlink:href="#hrEs16Rvd"/></g></g><g><use fill="#6c63ff" fill-opacity="1" opacity="1" xlink:href="#a4r4WoGzIG"/><g><use fill-opacity="0" stroke="#000" stroke-opacity="0" stroke-width="1" opacity="1" xlink:href="#a4r4WoGzIG"/></g></g><g><use fill="#000" fill-opacity="0" opacity="1" xlink:href="#dOlObSUt7"/><g><use fill-opacity="0" stroke="#000" stroke-opacity="0" stroke-width="1" opacity="1" xlink:href="#dOlObSUt7"/></g></g><g><use fill="#6c63ff" fill-opacity="1" opacity="1" xlink:href="#cD1khi8CD"/><g><use fill-opacity="0" stroke="#000" stroke-opacity="0" stroke-width="1" opacity="1" xlink:href="#cD1khi8CD"/></g></g><g><use fill="#000" fill-opacity="0" opacity="1" xlink:href="#e7Ptb9Q2"/><g><use fill-opacity="0" stroke="#000" stroke-opacity="0" stroke-width="1" opacity="1" xlink:href="#e7Ptb9Q2"/></g></g><g><use fill="#6c63ff" fill-opacity="1" opacity="1" xlink:href="#d1etkwfLrO"/><g><use fill-opacity="0" stroke="#000" stroke-opacity="0" stroke-width="1" opacity="1" xlink:href="#d1etkwfLrO"/></g></g><g><use fill="#000" fill-opacity="0" opacity="1" xlink:href="#aeVQBzlK1"/><g><use fill-opacity="0" stroke="#000" stroke-opacity="0" stroke-width="1" opacity="1" xlink:href="#aeVQBzlK1"/></g></g><g><use fill="#6c63ff" fill-opacity="1" opacity="1" xlink:href="#b13ZC2P8LA"/><g><use fill-opacity="0" stroke="#000" stroke-opacity="0" stroke-width="1" opacity="1" xlink:href="#b13ZC2P8LA"/></g></g><g><use fill="#000" fill-opacity="0" opacity="1" xlink:href="#bFonNGgwa"/><g><use fill-opacity="0" stroke="#000" stroke-opacity="0" stroke-width="1" opacity="1" xlink:href="#bFonNGgwa"/></g></g><g><use fill="#6c63ff" fill-opacity="1" opacity="1" xlink:href="#b15uxWbDFs"/><g><use fill-opacity="0" stroke="#000" stroke-opacity="0" stroke-width="1" opacity="1" xlink:href="#b15uxWbDFs"/></g></g><g><use fill="#000" fill-opacity="0" opacity="1" xlink:href="#c6VFvbrYl"/><g><use fill-opacity="0" stroke="#000" stroke-opacity="0" stroke-width="1" opacity="1" xlink:href="#c6VFvbrYl"/></g></g><g><use fill="#6c63ff" fill-opacity="1" opacity="1" xlink:href="#asyW8C2B"/><g><use fill-opacity="0" stroke="#000" stroke-opacity="0" stroke-width="1" opacity="1" xlink:href="#asyW8C2B"/></g></g><g><use fill="#000" fill-opacity="0" opacity="1" xlink:href="#a1s3jF56x3"/><g><use fill-opacity="0" stroke="#000" stroke-opacity="0" stroke-width="1" opacity="1" xlink:href="#a1s3jF56x3"/></g></g><g><use fill="#6c63ff" fill-opacity="1" opacity="1" xlink:href="#b1eH2LQpOx"/><g><use fill-opacity="0" stroke="#000" stroke-opacity="0" stroke-width="1" opacity="1" xlink:href="#b1eH2LQpOx"/></g></g><g><use fill="#000" fill-opacity="0" opacity="1" xlink:href="#j2YC5YaYmv"/><g><use fill-opacity="0" stroke="#000" stroke-opacity="0" stroke-width="1" opacity="1" xlink:href="#j2YC5YaYmv"/></g></g><g><use fill="#6c63ff" fill-opacity="1" opacity="1" xlink:href="#a3PswhWjQu"/><g><use fill-opacity="0" stroke="#000" stroke-opacity="0" stroke-width="1" opacity="1" xlink:href="#a3PswhWjQu"/></g></g><g><use fill="#000" fill-opacity="0" opacity="1" xlink:href="#a53b59MjV"/><g><use fill-opacity="0" stroke="#000" stroke-opacity="0" stroke-width="1" opacity="1" xlink:href="#a53b59MjV"/></g></g><g><use fill="#6c63ff" fill-opacity="1" opacity="1" xlink:href="#b7L5z7J7A"/><g><use fill-opacity="0" stroke="#000" stroke-opacity="0" stroke-width="1" opacity="1" xlink:href="#b7L5z7J7A"/></g></g><g><use fill="#17161d" fill-opacity="0" opacity="1" xlink:href="#b37PfId5wK"/><g><use fill-opacity="0" stroke="#000" stroke-opacity="0" stroke-width="1" opacity="1" xlink:href="#b37PfId5wK"/></g></g><g><use fill="#3f3d56" fill-opacity="1" opacity="1" xlink:href="#d15lzcKkBE"/><g><use fill-opacity="0" stroke="#000" stroke-opacity="0" stroke-width="1" opacity="1" xlink:href="#d15lzcKkBE"/></g></g><g><use fill="#000" fill-opacity="0" opacity="1" xlink:href="#b16K0mBdV7"/><g><use fill-opacity="0" stroke="#000" stroke-opacity="0" stroke-width="1" opacity="1" xlink:href="#b16K0mBdV7"/></g></g><g><use fill="#3f3d56" fill-opacity="1" opacity="1" xlink:href="#b1fLJkJUMz"/><g><use fill-opacity="0" stroke="#000" stroke-opacity="0" stroke-width="1" opacity="1" xlink:href="#b1fLJkJUMz"/></g></g><g><use fill="#000" fill-opacity="0" opacity="1" xlink:href="#fmwJ9aUvk"/><g><use fill-opacity="0" stroke="#000" stroke-opacity="0" stroke-width="1" opacity="1" xlink:href="#fmwJ9aUvk"/></g></g><g><use fill="#6c63ff" fill-opacity="1" opacity="1" xlink:href="#c43V2epnux"/><g><use fill-opacity="0" stroke="#000" stroke-opacity="0" stroke-width="1" opacity="1" xlink:href="#c43V2epnux"/></g></g><g><use fill="#000" fill-opacity="0" opacity="1" xlink:href="#en0ZwtdBB"/><g><use fill-opacity="0" stroke="#000" stroke-opacity="0" stroke-width="1" opacity="1" xlink:href="#en0ZwtdBB"/></g></g><g><use fill="#6c63ff" fill-opacity="1" opacity="1" xlink:href="#b7NBDSLv8"/><g><use fill-opacity="0" stroke="#000" stroke-opacity="0" stroke-width="1" opacity="1" xlink:href="#b7NBDSLv8"/></g></g><g><use fill="#000" fill-opacity="0" opacity="1" xlink:href="#b3gDx4s8Xq"/><g><use fill-opacity="0" stroke="#000" stroke-opacity="0" stroke-width="1" opacity="1" xlink:href="#b3gDx4s8Xq"/></g></g><g><use fill="#6c63ff" fill-opacity="1" opacity="1" xlink:href="#b8hT2gaXe"/><g><use fill-opacity="0" stroke="#000" stroke-opacity="0" stroke-width="1" opacity="1" xlink:href="#b8hT2gaXe"/></g></g><g><use fill="#000" fill-opacity="0" opacity="1" xlink:href="#d5tSNbzjnw"/><g><use fill-opacity="0" stroke="#000" stroke-opacity="0" stroke-width="1" opacity="1" xlink:href="#d5tSNbzjnw"/></g></g><g><use fill="#6c63ff" fill-opacity="1" opacity="1" xlink:href="#af4tTFa2"/><g><use fill-opacity="0" stroke="#000" stroke-opacity="0" stroke-width="1" opacity="1" xlink:href="#af4tTFa2"/></g></g><g><use fill="#000" fill-opacity="0" opacity="1" xlink:href="#aN62DPZkE"/><g><use fill-opacity="0" stroke="#000" stroke-opacity="0" stroke-width="1" opacity="1" xlink:href="#aN62DPZkE"/></g></g><g><use fill="#6c63ff" fill-opacity="1" opacity="1" xlink:href="#citQ8LvsL"/><g><use fill-opacity="0" stroke="#000" stroke-opacity="0" stroke-width="1" opacity="1" xlink:href="#citQ8LvsL"/></g></g><g><use fill="#000" fill-opacity="0" opacity="1" xlink:href="#b2QcSA14A"/><g><use fill-opacity="0" stroke="#000" stroke-opacity="0" stroke-width="1" opacity="1" xlink:href="#b2QcSA14A"/></g></g><g><use fill="#6c63ff" fill-opacity="1" opacity="1" xlink:href="#auixOXgzV"/><g><use fill-opacity="0" stroke="#000" stroke-opacity="0" stroke-width="1" opacity="1" xlink:href="#auixOXgzV"/></g></g><g><use fill="#000" fill-opacity="0" opacity="1" xlink:href="#h1RFKWd0yK"/><g><use fill-opacity="0" stroke="#000" stroke-opacity="0" stroke-width="1" opacity="1" xlink:href="#h1RFKWd0yK"/></g></g><g><use fill="#2f2e41" fill-opacity="1" opacity="1" xlink:href="#bo3MCiIl1"/><g><use fill-opacity="0" stroke="#000" stroke-opacity="0" stroke-width="1" opacity="1" xlink:href="#bo3MCiIl1"/></g></g><g><use fill="#000" fill-opacity="0" opacity="1" xlink:href="#a3vNM7jOYN"/><g><use fill-opacity="0" stroke="#000" stroke-opacity="0" stroke-width="1" opacity="1" xlink:href="#a3vNM7jOYN"/></g></g><g><use fill="#2f2e41" fill-opacity="1" opacity="1" xlink:href="#b5BxlCpEDy"/><g><use fill-opacity="0" stroke="#000" stroke-opacity="0" stroke-width="1" opacity="1" xlink:href="#b5BxlCpEDy"/></g></g><g><use fill="#000" fill-opacity="0" opacity="1" xlink:href="#a7saaMx1d"/><g><use fill-opacity="0" stroke="#000" stroke-opacity="0" stroke-width="1" opacity="1" xlink:href="#a7saaMx1d"/></g></g></g></g></svg>